<svg style="display:none">
	<symbol id="BehanceFooter" xmlns="http://www.w3.org/2000/svg" fill="none" viewBox="0 0 24 24" stroke="currentColor">
		<svg width="24" height="24" viewBox="0 0 24 24" fill="none" xmlns="http://www.w3.org/2000/svg">
			<path fill-rule="evenodd" clip-rule="evenodd" d="M8.62711 7C9.09529 7 9.52079 7.04002 9.90761 7.12538C10.2924 7.21208 10.6212 7.34547 10.898 7.5322C11.1714 7.71894 11.3868 7.9657 11.5382 8.27916C11.6883 8.59261 11.765 8.97943 11.765 9.43294C11.765 9.92646 11.6516 10.34 11.4269 10.6734C11.2014 11.0069 10.8686 11.2736 10.4251 11.4871C11.0294 11.6605 11.4762 11.9672 11.7737 12.4007C12.0724 12.8409 12.2172 13.3678 12.2172 13.9747C12.2172 14.4749 12.1305 14.9017 11.9437 15.2618C11.757 15.6287 11.4969 15.9288 11.1701 16.1622C10.85 16.3943 10.4698 16.5623 10.0563 16.6737C9.64951 16.7838 9.22134 16.8431 8.78251 16.8431H4V7.00467H8.62711V7ZM15.2977 15.1111C15.5911 15.3966 16.0133 15.54 16.5608 15.54C16.9543 15.54 17.2944 15.4412 17.5812 15.2418C17.864 15.0484 18.0347 14.835 18.1014 14.6149H19.8274C19.5587 15.4686 19.1285 16.0822 18.5603 16.449C17.9934 16.8224 17.3038 17.0025 16.5061 17.0025C15.9479 17.0025 15.4497 16.9158 14.9909 16.7357C14.5421 16.5557 14.1639 16.3022 13.8438 15.9755C13.5343 15.6487 13.2949 15.2552 13.1255 14.795C12.9568 14.3348 12.8767 13.828 12.8767 13.2811C12.8767 12.7455 12.9668 12.254 13.1455 11.7938C13.3256 11.327 13.575 10.9402 13.8925 10.6001C14.2226 10.2599 14.6014 10.0032 15.0502 9.80374C15.4991 9.60433 15.9839 9.51497 16.5308 9.51497C17.1377 9.51497 17.6579 9.62434 18.1181 9.86377C18.5649 10.0905 18.9317 10.4106 19.2252 10.7975C19.5186 11.1883 19.7254 11.6378 19.8521 12.1446C19.9788 12.6448 20.0188 13.1717 19.9922 13.7319H14.8635C14.8635 14.2921 15.0503 14.8203 15.337 15.1091L15.2837 15.1291L15.2977 15.1111ZM8.46838 15.1445C8.6798 15.1445 8.88188 15.1245 9.07262 15.0824C9.26603 15.0424 9.43809 14.9724 9.58148 14.8824C9.72153 14.7923 9.84158 14.6636 9.92828 14.4935C10.015 14.3335 10.055 14.1134 10.055 13.8533C10.055 13.3531 9.90827 12.993 9.62816 12.7729C9.34139 12.5595 8.96791 12.4528 8.50106 12.4528H6.16083V15.1538H8.46838V15.1338V15.1445ZM17.5432 11.3763C17.3085 11.1196 16.9163 10.9815 16.4381 10.9815C16.126 10.9815 15.8679 11.0309 15.6605 11.1403C15.4591 11.2403 15.2937 11.3737 15.167 11.5337C15.0402 11.6938 14.9555 11.8539 14.9055 12.0339C14.8555 12.2073 14.8255 12.3674 14.8155 12.5075H17.9914C17.9447 12.0073 17.7713 11.6405 17.5379 11.3804V11.387L17.5432 11.3763ZM8.34834 10.9662C8.73115 10.9662 9.04861 10.8768 9.2987 10.6914C9.54813 10.5114 9.66818 10.2112 9.66818 9.79908C9.66818 9.56965 9.6215 9.38225 9.54813 9.23486C9.46143 9.08814 9.34806 8.97476 9.21467 8.89339C9.07462 8.8107 8.91456 8.75334 8.73449 8.722C8.55442 8.68665 8.36101 8.67264 8.17427 8.67264H6.15416V10.9669H8.34834V10.9662ZM14.416 7.65959H18.3962V8.62929H14.416V7.65158V7.65825V7.65959Z" fill="#D9D9D9"/>
		</svg>
	</symbol>
	
	<symbol id="XMark" xmlns="http://www.w3.org/2000/svg" fill="none" viewBox="0 0 24 24" stroke="currentColor"><path stroke-linecap="round" stroke-linejoin="round" d="M6 18L18 6M6 6l12 12" /></symbol>
	<symbol id="Bars3" xmlns="http://www.w3.org/2000/svg" viewBox="0 0 20 20" stroke="currentColor" fill="none"><path fill-rule="evenodd" clip-rule="evenodd" d="M2.5 5.00033C2.5 4.54009 2.8731 4.16699 3.33333 4.16699H16.6667C17.1269 4.16699 17.5 4.54009 17.5 5.00033C17.5 5.46056 17.1269 5.83366 16.6667 5.83366H3.33333C2.8731 5.83366 2.5 5.46056 2.5 5.00033ZM2.5 10.0003C2.5 9.54009 2.8731 9.16699 3.33333 9.16699H16.6667C17.1269 9.16699 17.5 9.54009 17.5 10.0003C17.5 10.4606 17.1269 10.8337 16.6667 10.8337H3.33333C2.8731 10.8337 2.5 10.4606 2.5 10.0003ZM2.5 15.0003C2.5 14.5401 2.8731 14.167 3.33333 14.167H16.6667C17.1269 14.167 17.5 14.5401 17.5 15.0003C17.5 15.4606 17.1269 15.8337 16.6667 15.8337H3.33333C2.8731 15.8337 2.5 15.4606 2.5 15.0003Z" fill="currentColor"/></symbol>

	<symbol id="TwitterFooter" xmlns="http://www.w3.org/2000/svg" fill="none" viewBox="0 0 24 24" stroke="currentColor">
		<svg width="24" height="24" viewBox="0 0 24 24" fill="none" xmlns="http://www.w3.org/2000/svg">
			<path fill-rule="evenodd" clip-rule="evenodd" d="M19.9687 7.5486C19.3787 7.80792 18.7487 7.98458 18.0854 8.06525C18.7614 7.65793 19.2814 7.01596 19.5274 6.24999C18.8934 6.61997 18.1907 6.8893 17.4428 7.03929C16.8455 6.39998 15.9942 6 15.0489 6C13.2376 6 11.769 7.46861 11.769 9.27786C11.769 9.53785 11.799 9.78784 11.8537 10.0272C9.12712 9.8985 6.71055 8.58923 5.09329 6.60997C4.80863 7.09129 4.64931 7.6506 4.64931 8.25991C4.64931 9.39986 5.22928 10.4018 6.10791 10.9905C5.56993 10.9731 5.06396 10.8251 4.62264 10.5798V10.6205C4.62264 12.2104 5.75126 13.5364 7.2532 13.8383C6.97788 13.9123 6.68722 13.9523 6.38923 13.9523C6.17991 13.9523 5.97925 13.9323 5.77859 13.895C6.19924 15.1969 7.40852 16.1462 8.8478 16.1729C7.72784 17.0522 6.30857 17.5762 4.77997 17.5762C4.51998 17.5762 4.26066 17.5609 4 17.5315C5.45927 18.4608 7.17853 19.0041 9.03779 19.0041C15.0735 19.0041 18.3701 14.007 18.3701 9.68051C18.3701 9.54119 18.3701 9.40052 18.3601 9.26053C19.0007 8.80122 19.56 8.22057 20 7.56193L19.9687 7.5486Z" fill="#D9D9D9"/>
		</svg>
	</symbol>

	<symbol id="DribbleFooter" xmlns="http://www.w3.org/2000/svg" fill="none" viewBox="0 0 24 24" stroke="currentColor">
		<svg width="24" height="24" viewBox="0 0 24 24" fill="none" xmlns="http://www.w3.org/2000/svg">
			<path fill-rule="evenodd" clip-rule="evenodd" d="M12 20C7.59 20 4 16.41 4 12C4 7.59 7.59 4 12 4C16.41 4 20 7.59 20 12C20 16.41 16.41 20 12 20ZM18.7467 13.0947C18.5133 13.0213 16.6333 12.4593 14.4907 12.8027C15.384 15.2587 15.7487 17.2587 15.8187 17.6747C17.352 16.638 18.4427 14.9947 18.7487 13.0947H18.7467ZM14.67 18.3C14.568 17.7 14.17 15.612 13.21 13.12L13.166 13.1333C9.306 14.4767 7.926 17.15 7.806 17.4C8.95933 18.3053 10.4193 18.844 11.9993 18.844C12.946 18.844 13.846 18.6507 14.666 18.3013L14.67 18.3ZM6.92333 16.58C7.078 16.3133 8.95333 13.21 12.478 12.07C12.568 12.04 12.658 12.014 12.748 11.99C12.5747 11.6 12.388 11.212 12.1933 10.83C8.78 11.85 5.47067 11.8067 5.17067 11.8L5.168 12.008C5.168 13.7633 5.83333 15.366 6.924 16.578L6.92333 16.58ZM5.31 10.61C5.61667 10.6153 8.432 10.6273 11.628 9.778C10.496 7.766 9.27467 6.07267 9.09467 5.826C7.18267 6.726 5.75467 8.486 5.31067 10.606L5.31 10.61ZM10.4 5.368C10.588 5.62133 11.83 7.31067 12.948 9.368C15.378 8.458 16.408 7.07467 16.53 6.9C15.3233 5.82667 13.7367 5.176 12 5.176C11.45 5.176 10.9133 5.24267 10.4 5.366V5.368ZM17.29 7.69C17.1447 7.88333 16 9.352 13.474 10.3833C13.634 10.71 13.7873 11.04 13.9273 11.374C13.9807 11.494 14.0273 11.614 14.074 11.7273C16.3473 11.4407 18.6073 11.9007 18.834 11.9473C18.8207 10.334 18.2473 8.854 17.294 7.694L17.29 7.69Z" fill="#D9D9D9"/>
		</svg>
	</symbol>

	<symbol id="LogoWithoutText" xmlns="http://www.w3.org/2000/svg" fill="none" viewBox="0 0 63 44" stroke="currentColor">
		<svg width="63" height="44" viewBox="0 0 63 44" fill="none" xmlns="http://www.w3.org/2000/svg">
			<g clip-path="url(#clip0_6_410)">
			<path d="M43.8981 22L37.6283 33.144H37.7726L31.7165 44H44.1155L50.2995 33.144H50.1698L43.8981 22Z" fill="#B3BEC4"/>
			<path d="M19.1019 22L25.3736 10.856H25.2293L31.2835 0H18.8863L12.7005 10.856H12.8302L19.1019 22Z" fill="#B3BEC4"/>
			<path d="M37.6283 33.1439H25.3736L19.1019 21.9999L12.8302 10.856H12.7005H0L6.35024 21.9999L12.7005 33.1439L18.8863 43.9999H31.2835H31.7165L37.7726 33.1439H37.6283Z" fill="white"/>
			<path d="M56.6498 22L50.2995 10.856L44.1155 0H31.7165H31.2835L25.2292 10.856H25.3736H37.6283L43.8981 22L50.1698 33.144H50.2995H63L56.6498 22Z" fill="white"/>
			</g>
			<defs>
			<clipPath id="clip0_6_410">
			<rect width="63" height="44" fill="white"/>
			</clipPath>
			</defs>
		</svg>
	</symbol>

	<symbol id="InputUser" xmlns="http://www.w3.org/2000/svg" fill="none" viewBox="0 0 48 48" stroke="#000">
		<svg width="48" height="48" viewBox="0 0 48 48" fill="none" xmlns="http://www.w3.org/2000/svg">
		<path fill-rule="evenodd" clip-rule="evenodd" d="M24 40C32.8366 40 40 32.8366 40 24C40 15.1634 32.8366 8 24 8C15.1634 8 8 15.1634 8 24C8 32.8366 15.1634 40 24 40ZM13.268 32.254C11.5081 29.9692 10.4615 27.1067 10.4615 23.9997C10.4615 16.5226 16.5229 10.4612 23.9999 10.4612C31.477 10.4612 37.5384 16.5226 37.5384 23.9997C37.5384 27.1072 36.4914 29.9702 34.731 32.2552C33.9278 31.5269 32.9014 31.0002 31.5506 30.514C31.3483 30.4412 31.1409 30.3696 30.882 30.2825L30.2515 30.0714C28.7183 29.5541 28.1758 29.2255 28.0496 28.8097C28.0452 28.7957 28.0385 28.7697 28.0289 28.7193C27.9743 28.4312 27.9868 28.1162 28.0989 27.8548C28.165 27.7006 28.2658 27.5633 28.4169 27.437C30.1173 25.902 30.9744 24.1721 30.9744 21.8125C30.9744 17.7014 27.7579 14.5643 24.0001 14.5643C20.2164 14.5643 17.0257 17.648 17.0257 21.8125C17.0257 24.1651 17.8606 25.8446 19.5002 27.3887C19.7112 27.5667 19.8172 27.6969 19.8892 27.8335C20.0287 28.0979 20.0465 28.4045 19.9854 28.6867C19.9811 28.7068 19.9774 28.7221 19.9751 28.7316C19.9724 28.7431 19.9716 28.7464 19.9739 28.7402C19.8524 29.1717 19.3493 29.4817 17.9317 29.9659L17.2054 30.2111C16.9025 30.3139 16.6616 30.3983 16.4259 30.4853C15.0976 30.9756 14.0711 31.517 13.268 32.254ZM14.9442 34.0639C17.343 36.2237 20.518 37.5382 23.9999 37.5382C27.4812 37.5382 30.6555 36.2242 33.0541 34.0652C32.517 33.5894 31.7727 33.2101 30.717 32.8301C30.5333 32.764 30.3411 32.6976 30.0972 32.6156L29.4646 32.4038C27.1747 31.6312 26.1439 31.0067 25.7004 29.5445C25.6724 29.4575 25.64 29.3337 25.6104 29.1776C25.4725 28.4498 25.5036 27.661 25.8366 26.8846C26.0532 26.3795 26.386 25.9264 26.8025 25.5794C27.9755 24.5197 28.5129 23.4351 28.5129 21.8125C28.5129 19.0749 26.412 17.0258 24.0001 17.0258C21.5574 17.0258 19.4872 19.0266 19.4872 21.8125C19.4872 23.4335 20.0122 24.4896 21.1291 25.5448C21.5305 25.8773 21.843 26.2614 22.0664 26.6851C22.5134 27.5325 22.5644 28.4076 22.3913 29.2075C22.3558 29.3712 22.3168 29.5015 22.3167 29.4871C21.9291 30.9264 20.9269 31.544 18.7273 32.2953L17.9963 32.5422C17.7122 32.6385 17.4904 32.7162 17.2783 32.7945C16.2347 33.1797 15.486 33.5731 14.9442 34.0639Z" fill="#3D3D3D"/>
		</svg>
	</symbol>

	<symbol id="InputEmail" xmlns="http://www.w3.org/2000/svg" fill="none" viewBox="0 0 48 49" stroke="#000">
		<svg width="48" height="49" viewBox="0 0 48 49" fill="none" xmlns="http://www.w3.org/2000/svg">
		<path fill-rule="evenodd" clip-rule="evenodd" d="M39.9688 14.3704C39.9896 14.4134 40 14.4563 40 14.4992V31.1129C40 31.9714 39.7917 32.7871 39.375 33.5598C38.9583 34.3326 38.3333 34.7189 37.5 34.7189H11.5C10.6667 34.7189 9.875 34.3326 9.125 33.5598C8.375 32.7871 8 31.9714 8 31.1129V14.4992C8 14.4563 8.01042 14.4134 8.03125 14.3704C7.98958 14.2202 7.98958 14.0753 8.03125 13.9358C8.07292 13.7962 8.14583 13.6621 8.25 13.5333C8.27083 13.5118 8.29167 13.485 8.3125 13.4528C8.33333 13.4206 8.36458 13.3938 8.40625 13.3723C8.71875 12.943 9.16146 12.6157 9.73438 12.3903C10.3073 12.1649 10.8958 12.0522 11.5 12.0522H37.5C38.1667 12.0522 38.7031 12.1971 39.1094 12.4869C39.5156 12.7767 39.7812 13.2113 39.9062 13.7909C39.9479 13.8767 39.974 13.968 39.9844 14.0646C39.9948 14.1611 39.9896 14.2631 39.9688 14.3704ZM11.0312 14.1128C10.8646 14.1128 10.6979 14.1236 10.5312 14.145L24 25.2208L37.5 14.1128H11.0312ZM37.5 32.6583C37.7708 32.6583 37.9219 32.4705 37.9531 32.0949C37.9844 31.7193 38 31.3919 38 31.1129V16.3667L24.6562 27.3458C24.5521 27.4317 24.4479 27.4961 24.3438 27.539C24.2396 27.5819 24.125 27.6034 24 27.6034C23.875 27.6034 23.7604 27.5819 23.6562 27.539C23.5521 27.4961 23.4479 27.4317 23.3438 27.3458L10 16.3667V31.1129C10 31.3919 10.1823 31.7193 10.5469 32.0949C10.9115 32.4705 11.2292 32.6583 11.5 32.6583H37.5Z" fill="#3D3D3D"/>
		</svg>
	</symbol>

	<symbol id="Behance" xmlns="http://www.w3.org/2000/svg" fill="none" viewBox="0 0 48 48" stroke="currentColor">
		<svg width="48" height="48" viewBox="0 0 48 48" fill="none" xmlns="http://www.w3.org/2000/svg">
			<path fill-rule="evenodd" clip-rule="evenodd" d="M19.278 17C19.9334 17 20.5291 17.056 21.0706 17.1755C21.6094 17.2969 22.0697 17.4837 22.4572 17.7451C22.84 18.0065 23.1416 18.352 23.3535 18.7908C23.5636 19.2297 23.671 19.7712 23.671 20.4061C23.671 21.097 23.5122 21.6759 23.1976 22.1428C22.882 22.6096 22.4161 22.9831 21.7952 23.2819C22.6411 23.5246 23.2667 23.9541 23.6831 24.561C24.1014 25.1773 24.304 25.9149 24.304 26.7646C24.304 27.4648 24.1826 28.0624 23.9212 28.5666C23.6598 29.0801 23.2956 29.5003 22.8381 29.8271C22.3899 30.152 21.8577 30.3873 21.2789 30.5432C20.7093 30.6973 20.1099 30.7804 19.4955 30.7804H12.8V17.0065H19.278V17ZM28.6167 28.3554C29.0276 28.7551 29.6186 28.9558 30.3852 28.9558C30.936 28.9558 31.4122 28.8176 31.8137 28.5384C32.2096 28.2677 32.4486 27.9689 32.542 27.6608H34.9584C34.5821 28.8559 33.9799 29.7149 33.1844 30.2284C32.3907 30.7513 31.4253 31.0034 30.3086 31.0034C29.5271 31.0034 28.8296 30.882 28.1872 30.6299C27.5589 30.3778 27.0295 30.023 26.5813 29.5655C26.1481 29.108 25.8129 28.5571 25.5757 27.9129C25.3395 27.2686 25.2274 26.559 25.2274 25.7934C25.2274 25.0436 25.3535 24.3555 25.6037 23.7113C25.8558 23.0577 26.205 22.5161 26.6495 22.0399C27.1116 21.5638 27.642 21.2043 28.2703 20.9251C28.8987 20.6459 29.5775 20.5208 30.3431 20.5208C31.1928 20.5208 31.9211 20.674 32.5653 21.0091C33.1909 21.3266 33.7044 21.7748 34.1153 22.3163C34.5261 22.8635 34.8155 23.4928 34.9929 24.2024C35.1703 24.9026 35.2264 25.6403 35.189 26.4246H28.0089C28.0089 27.2089 28.2703 27.9484 28.6718 28.3526L28.5971 28.3807L28.6167 28.3554ZM19.0557 28.4024C19.3517 28.4024 19.6346 28.3744 19.9017 28.3156C20.1724 28.2595 20.4133 28.1615 20.6141 28.0355C20.8101 27.9094 20.9782 27.7292 21.0996 27.4911C21.221 27.267 21.277 26.9589 21.277 26.5948C21.277 25.8945 21.0716 25.3903 20.6794 25.0822C20.2779 24.7834 19.7551 24.634 19.1015 24.634H15.8252V28.4155H19.0557V28.3875V28.4024ZM31.7605 23.1269C31.4318 22.7674 30.8828 22.5741 30.2134 22.5741C29.7764 22.5741 29.4151 22.6432 29.1247 22.7963C28.8427 22.9364 28.6111 23.1231 28.4337 23.3472C28.2563 23.5713 28.1378 23.7954 28.0677 24.0475C27.9977 24.2902 27.9557 24.5143 27.9417 24.7104H32.3879C32.3226 24.0101 32.0798 23.4966 31.753 23.1325V23.1418L31.7605 23.1269ZM18.8877 22.5528C19.4236 22.5528 19.868 22.4276 20.2182 22.1681C20.5674 21.916 20.7354 21.4958 20.7354 20.9188C20.7354 20.5976 20.6701 20.3352 20.5674 20.1289C20.446 19.9235 20.2873 19.7647 20.1005 19.6508C19.9045 19.5351 19.6804 19.4548 19.4283 19.4109C19.1762 19.3614 18.9054 19.3418 18.644 19.3418H15.8158V22.5537H18.8877V22.5528ZM27.3824 17.9233H32.9547V19.2809H27.3824V17.9121V17.9215V17.9233Z" fill="#3D3D3D"/>
			<rect x="1" y="1" width="46" height="46" rx="23" stroke="#3D3D3D" stroke-width="2"/>
		</svg>
	</symbol>

	<symbol id="Drible" xmlns="http://www.w3.org/2000/svg" fill="none" viewBox="0 0 48 48" stroke="currentColor">
		<svg width="48" height="48" viewBox="0 0 48 48" fill="none" xmlns="http://www.w3.org/2000/svg">
			<path fill-rule="evenodd" clip-rule="evenodd" d="M24 35.2001C17.826 35.2001 12.8 30.174 12.8 24C12.8 17.826 17.826 12.8 24 12.8C30.174 12.8 35.2 17.826 35.2 24C35.2 30.174 30.174 35.2001 24 35.2001ZM33.4453 25.5325C33.1187 25.4299 30.4867 24.6431 27.4869 25.1237C28.7376 28.5621 29.2481 31.3621 29.3461 31.9445C31.4928 30.4932 33.0197 28.1925 33.4481 25.5325H33.4453ZM27.738 32.8201C27.5952 31.9801 27.038 29.0569 25.694 25.5681L25.6324 25.5868C20.2284 27.4674 18.2964 31.2101 18.1284 31.5601C19.7431 32.8276 21.7871 33.5817 23.9991 33.5817C25.3244 33.5817 26.5844 33.311 27.7324 32.822L27.738 32.8201ZM16.8927 30.4121C17.1092 30.0387 19.7347 25.6941 24.6692 24.0981C24.7952 24.0561 24.9212 24.0197 25.0472 23.9861C24.8045 23.4401 24.5432 22.8969 24.2707 22.3621C19.492 23.7901 14.8589 23.7294 14.4389 23.7201L14.4352 24.0113C14.4352 26.4687 15.3667 28.7125 16.8936 30.4093L16.8927 30.4121ZM14.634 22.0541C15.0633 22.0616 19.0048 22.0784 23.4792 20.8893C21.8944 18.0725 20.1845 15.7019 19.9325 15.3565C17.2557 16.6165 15.2565 19.0805 14.6349 22.0485L14.634 22.0541ZM21.76 14.7152C22.0232 15.0698 23.762 17.4349 25.3272 20.3152C28.7292 19.0412 30.1712 17.1045 30.342 16.86C28.6527 15.3573 26.4313 14.4464 24 14.4464C23.23 14.4464 22.4787 14.5397 21.76 14.7124V14.7152ZM31.406 17.9662C31.2025 18.2369 29.6 20.293 26.0636 21.7369C26.2876 22.1942 26.5023 22.6562 26.6983 23.1238C26.7729 23.2918 26.8383 23.4598 26.9036 23.6185C30.0863 23.2172 33.2503 23.8612 33.5676 23.9265C33.5489 21.6678 32.7463 19.5958 31.4116 17.9718L31.406 17.9662Z" fill="#3D3D3D"/>
			<rect x="1" y="1" width="46" height="46" rx="23" stroke="#3D3D3D" stroke-width="2"/>
		</svg>
	</symbol>

	<symbol id="Twitter" xmlns="http://www.w3.org/2000/svg" fill="none" viewBox="0 0 48 48" stroke="currentColor">
		<svg width="48" height="48" viewBox="0 0 48 48" fill="none" xmlns="http://www.w3.org/2000/svg">
			<path fill-rule="evenodd" clip-rule="evenodd" d="M35.1562 17.7679C34.3302 18.1309 33.4482 18.3783 32.5196 18.4912C33.466 17.921 34.1939 17.0222 34.5383 15.9498C33.6508 16.4678 32.6671 16.8449 31.6199 17.0549C30.7837 16.1598 29.5919 15.5999 28.2684 15.5999C25.7327 15.5999 23.6766 17.6559 23.6766 20.1889C23.6766 20.5528 23.7186 20.9028 23.7952 21.2379C19.978 21.0578 16.5948 19.2248 14.3306 16.4538C13.9321 17.1277 13.709 17.9107 13.709 18.7637C13.709 20.3597 14.521 21.7624 15.7511 22.5865C14.9979 22.5622 14.2896 22.355 13.6717 22.0116V22.0685C13.6717 24.2944 15.2518 26.1507 17.3545 26.5735C16.969 26.6771 16.5621 26.7331 16.1449 26.7331C15.8519 26.7331 15.571 26.7051 15.29 26.6529C15.879 28.4756 17.572 29.8046 19.5869 29.8419C18.019 31.0729 16.032 31.8065 13.892 31.8065C13.528 31.8065 13.1649 31.785 12.8 31.744C14.843 33.045 17.25 33.8056 19.8529 33.8056C28.303 33.8056 32.9181 26.8097 32.9181 20.7526C32.9181 20.5575 32.9181 20.3606 32.9041 20.1646C33.801 19.5216 34.584 18.7087 35.2 17.7866L35.1562 17.7679Z" fill="#3D3D3D"/>
			<rect x="1" y="1" width="46" height="46" rx="23" stroke="#3D3D3D" stroke-width="2"/>
		</svg>
	</symbol>

	<symbol id="Testimonial" xmlns="http://www.w3.org/2000/svg" fill="none" viewBox="0 0 70 70" stroke="currentColor">
		<svg width="70" height="70" viewBox="0 0 70 70" fill="none" xmlns="http://www.w3.org/2000/svg">
		<rect width="70" height="70" rx="35" fill="#3BC9E1"/>
		<path fill-rule="evenodd" clip-rule="evenodd" d="M21.0486 47.2501H28.1944L32.9583 38.2667V24.7917H18.6667V38.2667H25.8125L21.0486 47.2501ZM39.4236 47.2501H46.5694L51.3333 38.2667V24.7917H37.0417V38.2667H44.1875L39.4236 47.2501Z" fill="white"/>
		</svg>
	</symbol>
	

	<symbol id="ChevronLeft" xmlns="http://www.w3.org/2000/svg" fill="none" viewBox="0 0 31 54" stroke="currentColor"><svg width="31" height="54" viewBox="0 0 31 54" fill="none" xmlns="http://www.w3.org/2000/svg">
		<path fill-rule="evenodd" clip-rule="evenodd" d="M29.4595 6.27118C30.8179 4.91283 30.8179 2.71052 29.4595 1.35218C28.1012 -0.00616837 25.8989 -0.00616837 24.5405 1.35218L1.3521 24.5406C-0.00624084 25.8989 -0.00624084 28.1012 1.3521 29.4596L24.5405 52.648C25.8989 54.0063 28.1012 54.0063 29.4595 52.648C30.8179 51.2896 30.8179 49.0873 29.4595 47.729L8.73061 27.0001L29.4595 6.27118Z" fill="#3D3D3D"/>
		</svg>
	</symbol>

	<symbol id="ChevronRight" xmlns="http://www.w3.org/2000/svg" fill="none" viewBox="0 0 31 54" stroke="currentColor"><svg width="31" height="54" viewBox="0 0 31 54" fill="none" xmlns="http://www.w3.org/2000/svg">
		<path fill-rule="evenodd" clip-rule="evenodd" d="M1.68052 47.7288C0.328703 49.0872 0.328703 51.2895 1.68052 52.6478C3.03233 54.0062 5.22406 54.0062 6.57587 52.6478L29.6528 29.4594C31.0046 28.1011 31.0046 25.8988 29.6528 24.5404L6.57587 1.35201C5.22406 -0.00633436 3.03233 -0.00633436 1.68052 1.35201C0.328703 2.71036 0.328703 4.91267 1.68052 6.27101L22.3098 26.9999L1.68052 47.7288Z" fill="#3D3D3D"/>
		</svg>
	</symbol>
	
	<symbol id="Logo" viewBox="0 0 205 59" fill="none" xmlns="http://www.w3.org/2000/svg"><svg width="205" height="59" viewBox="0 0 205 59" fill="none" xmlns="http://www.w3.org/2000/svg"><g clip-path="url(#clip0_1_5)"><path d="M47.6397 29.5L40.8355 41.6146H40.9921L34.4198 53.4122H47.8757L54.5867 41.6146H54.446L47.6397 29.5Z" fill="#B3BEC4"/><path d="M20.73 29.5L27.5362 17.3874H27.3796L33.9499 5.58781H20.496L13.783 17.3874H13.9237L20.73 29.5Z" fill="#B3BEC4"/><path d="M40.8354 41.6146H27.5362L20.73 29.5L13.9237 17.3874H13.783H0L6.89149 29.5L13.783 41.6146L20.496 53.4122H33.9499H34.4198L40.9921 41.6146H40.8354Z" fill="white"/><path d="M61.4782 29.5L54.5867 17.3874L47.8756 5.58781H34.4198H33.9499L27.3796 17.3874H27.5362H40.8354L47.6397 29.5L54.4459 41.6146H54.5867H68.3697L61.4782 29.5Z" fill="white"/><path d="M91.3083 17.4791V7.03709H98.7866V8.1116H92.4522V11.7079H97.6447V12.7664H92.4522V16.4066H98.7866V17.4811H91.3083V17.4791Z" fill="white"/><path d="M100.698 10.0812H101.81V11.1856C102.314 10.4241 103.16 9.93167 104.288 9.93167C105.416 9.93167 106.291 10.4101 106.721 11.3929C107.254 10.5138 108.19 9.93167 109.435 9.93167C111.053 9.93167 112.195 10.9005 112.195 12.9299V17.4791H111.083V13.0495C111.083 11.6182 110.268 10.9763 109.259 10.9763C107.893 10.9763 107.018 12.1405 107.018 13.4682V17.4811H105.906V13.0515C105.906 11.6202 105.089 10.9783 104.066 10.9783C102.7 10.9783 101.812 12.1425 101.812 13.4702V17.4831H100.7V10.0812H100.698Z" fill="white"/><path d="M117.847 9.93167C120.147 9.93167 121.497 11.7817 121.497 13.4821C121.497 13.7054 121.467 13.9147 121.422 14.1679H115.25C115.413 15.5095 116.408 16.6 118.069 16.6C118.767 16.6 119.687 16.3907 120.518 15.5853L121.17 16.4206C120.25 17.3595 119.049 17.6446 118.055 17.6446C115.504 17.6446 114.094 15.7946 114.094 13.7652C114.094 11.6022 115.682 9.93167 117.847 9.93167ZM115.28 13.1532H120.323C120.161 12.0348 119.3 10.9603 117.845 10.9603C116.511 10.9603 115.516 11.8853 115.278 13.1532H115.28Z" fill="white"/><path d="M123.5 17.4791V10.0812H124.612V12.3199C125.088 11.2015 126.154 10.0672 127.729 9.93367V11.2175C126.127 11.4109 124.612 12.7684 124.612 14.3353V17.4831H123.5V17.4791Z" fill="white"/><path d="M132.326 9.93167C133.468 9.93167 134.358 10.3782 134.951 11.0799V10.0812H136.063V16.1235C136.063 19.0919 134.313 20.4195 132.221 20.4195C130.738 20.4195 129.624 19.7637 128.882 19.046L129.521 18.1948C130.308 18.8805 131.152 19.3729 132.221 19.3729C133.823 19.3729 134.951 18.2546 134.951 16.285V16.0916C134.358 16.7933 133.468 17.2399 132.326 17.2399C130.175 17.2399 128.646 15.673 128.646 13.5858C128.646 11.4986 130.175 9.93167 132.326 9.93167ZM132.386 16.1973C133.869 16.1973 134.997 15.0789 134.997 13.5858C134.997 12.0926 133.869 10.9743 132.386 10.9743C130.903 10.9743 129.788 12.0926 129.788 13.5858C129.788 15.0789 130.901 16.1973 132.386 16.1973Z" fill="white"/><path d="M139.21 7.20256C139.61 7.20256 139.967 7.53149 139.967 7.94813C139.967 8.36478 139.61 8.69371 139.21 8.69371C138.779 8.69371 138.438 8.36478 138.438 7.94813C138.438 7.53149 138.779 7.20256 139.21 7.20256ZM139.745 10.0812V17.4811H138.633V10.0812H139.745Z" fill="white"/><path d="M143.466 10.0812V11.3192C144.045 10.4679 144.979 9.93167 146.226 9.93167C147.917 9.93167 149.135 10.9464 149.135 13.1392V17.4811H148.022V13.2748C148.022 11.664 147.148 10.9763 146.02 10.9763C144.462 10.9763 143.468 12.304 143.468 13.7512V17.4811H142.34V10.0812H143.468H143.466Z" fill="white"/><path d="M154.741 9.93167C155.883 9.93167 156.773 10.3782 157.366 11.0799V10.0812H158.478V16.1235C158.478 19.0919 156.728 20.4195 154.636 20.4195C153.153 20.4195 152.039 19.7637 151.298 19.046L151.936 18.1948C152.723 18.8805 153.568 19.3729 154.636 19.3729C156.238 19.3729 157.366 18.2546 157.366 16.285V16.0916C156.773 16.7933 155.883 17.2399 154.741 17.2399C152.59 17.2399 151.062 15.673 151.062 13.5858C151.062 11.4986 152.59 9.93167 154.741 9.93167ZM154.801 16.1973C156.284 16.1973 157.412 15.0789 157.412 13.5858C157.412 12.0926 156.284 10.9743 154.801 10.9743C153.318 10.9743 152.204 12.0926 152.204 13.5858C152.204 15.0789 153.316 16.1973 154.801 16.1973Z" fill="white"/><path d="M91.1893 22.4011L95.1208 31.5314L99.0662 22.4011H100.327L95.7572 32.8431H94.4824L89.9125 22.4011H91.1893Z" fill="white"/><path d="M104.096 25.2957C106.396 25.2957 107.746 27.1456 107.746 28.8461C107.746 29.0694 107.716 29.2787 107.671 29.5319H101.499C101.661 30.8735 102.657 31.964 104.318 31.964C105.016 31.964 105.936 31.7547 106.767 30.9493L107.419 31.7846C106.499 32.7235 105.297 33.0086 104.304 33.0086C101.753 33.0086 100.343 31.1586 100.343 29.1292C100.343 26.9662 101.931 25.2957 104.096 25.2957ZM101.529 28.5172H106.572C106.41 27.3988 105.549 26.3243 104.094 26.3243C102.76 26.3243 101.764 27.2493 101.527 28.5172H101.529Z" fill="white"/><path d="M110.831 25.4452V26.6832C111.41 25.8319 112.344 25.2957 113.591 25.2957C115.282 25.2957 116.499 26.3104 116.499 28.5032V32.8451H115.387V28.6388C115.387 27.028 114.513 26.3403 113.384 26.3403C111.826 26.3403 110.833 27.668 110.833 29.1152V32.8451H109.705V25.4452H110.833H110.831Z" fill="white"/><path d="M117.818 25.4452H119.287V23.1925L120.399 22.8197V25.4452H123.321V26.5037H120.399V30.2775C120.399 31.635 121.021 31.964 121.733 31.964C122.177 31.964 122.697 31.8145 123.157 31.5154L123.573 32.4245C123.04 32.7534 122.385 33.0066 121.6 33.0066C120.324 33.0066 119.287 32.3946 119.287 30.2017V26.5018H117.818V25.4432V25.4452Z" fill="white"/><path d="M125.948 25.4452V29.6515C125.948 31.2623 126.822 31.948 127.951 31.948C129.509 31.948 130.502 30.6204 130.502 29.1731V25.4432H131.614V32.8431H130.502V31.5892C129.923 32.4404 128.989 32.9906 127.742 32.9906C126.051 32.9906 124.834 31.962 124.834 29.7831V25.4412H125.946L125.948 25.4452Z" fill="white"/><path d="M134.18 32.8431V25.4432H135.292V27.6819C135.768 26.5635 136.835 25.4292 138.409 25.2957V26.5795C136.807 26.7729 135.292 28.1304 135.292 29.6973V32.8451H134.18V32.8431Z" fill="white"/><path d="M143.082 25.2957C145.381 25.2957 146.732 27.1456 146.732 28.8461C146.732 29.0694 146.702 29.2787 146.658 29.5319H140.486C140.649 30.8735 141.644 31.964 143.306 31.964C144.004 31.964 144.922 31.7547 145.754 30.9493L146.406 31.7846C145.487 32.7235 144.285 33.0086 143.29 33.0086C140.738 33.0086 139.329 31.1586 139.329 29.1292C139.329 26.9662 140.917 25.2957 143.082 25.2957ZM140.516 28.5172H145.56C145.397 27.3988 144.537 26.3243 143.082 26.3243C141.747 26.3243 140.752 27.2493 140.516 28.5172Z" fill="white"/><path d="M152.604 27.6221C152.604 24.5641 154.963 22.2217 157.975 22.2217C160.275 22.2217 162.174 23.6092 162.929 25.5329L161.847 25.9356C161.209 24.4145 159.739 23.3241 157.959 23.3241C155.63 23.3241 153.776 25.188 153.776 27.6201C153.776 30.0522 155.616 31.9161 157.975 31.9161C159.755 31.9161 161.209 30.8416 161.847 29.3046L162.929 29.6934C162.172 31.6331 160.275 33.0205 157.975 33.0205C154.963 33.0205 152.604 30.6782 152.604 27.6201V27.6221Z" fill="white"/><path d="M164.293 29.1432C164.293 26.9802 165.895 25.2937 168.106 25.2937C169.264 25.2937 170.184 25.7562 170.806 26.5317V25.4432H171.918V32.8431H170.806V31.7547C170.184 32.5301 169.248 33.0086 168.092 33.0086C165.895 33.0086 164.293 31.3081 164.293 29.1452V29.1432ZM165.435 29.1432C165.435 30.724 166.563 31.962 168.12 31.962C169.676 31.962 170.85 30.724 170.85 29.1432C170.85 27.5623 169.692 26.3383 168.12 26.3383C166.548 26.3383 165.435 27.5623 165.435 29.1432Z" fill="white"/><path d="M174.456 25.4452H175.568V26.5197C176.191 25.7582 177.127 25.2957 178.269 25.2957C180.479 25.2957 182.081 26.9822 182.081 29.1451C182.081 31.3081 180.479 33.0086 178.269 33.0086C177.127 33.0086 176.191 32.5461 175.568 31.7706V35.5144H174.456V25.4452ZM178.239 31.964C179.811 31.964 180.939 30.726 180.939 29.1451C180.939 27.5643 179.811 26.3403 178.239 26.3403C176.667 26.3403 175.525 27.5643 175.525 29.1451C175.525 30.726 176.667 31.964 178.239 31.964Z" fill="white"/><path d="M184.752 22.5646C185.152 22.5646 185.509 22.8935 185.509 23.3101C185.509 23.7268 185.152 24.0557 184.752 24.0557C184.322 24.0557 183.981 23.7268 183.981 23.3101C183.981 22.8935 184.322 22.5646 184.752 22.5646ZM185.287 25.4432V32.8431H184.175V25.4432H185.287Z" fill="white"/><path d="M187.139 25.4452H188.608V23.1925L189.72 22.8197V25.4452H192.643V26.5037H189.72V30.2775C189.72 31.635 190.343 31.964 191.056 31.964C191.501 31.964 192.02 31.8145 192.48 31.5154L192.896 32.4245C192.363 32.7534 191.709 33.0066 190.924 33.0066C189.649 33.0066 188.61 32.3946 188.61 30.2017V26.5018H187.141V25.4432L187.139 25.4452Z" fill="white"/><path d="M193.668 29.1432C193.668 26.9802 195.269 25.2937 197.48 25.2937C198.638 25.2937 199.558 25.7562 200.18 26.5317V25.4432H201.293V32.8431H200.18V31.7547C199.558 32.5301 198.622 33.0086 197.466 33.0086C195.271 33.0086 193.668 31.3081 193.668 29.1452V29.1432ZM194.809 29.1432C194.809 30.724 195.938 31.962 197.494 31.962C199.05 31.962 200.224 30.724 200.224 29.1432C200.224 27.5623 199.068 26.3383 197.494 26.3383C195.92 26.3383 194.809 27.5623 194.809 29.1432Z" fill="white"/><path d="M203.872 22.4011H205V32.8431H203.872V22.4011Z" fill="white"/><path d="M91.3242 37.7651H98.5051V38.8396H92.4661V42.9263H97.9559V44.0008H92.4661V48.2071H91.3242V37.7651Z" fill="white"/><path d="M103.503 40.6597C105.803 40.6597 107.153 42.5097 107.153 44.2101C107.153 44.4334 107.123 44.6427 107.078 44.8959H100.906C101.069 46.2375 102.064 47.328 103.725 47.328C104.423 47.328 105.343 47.1187 106.174 46.3133L106.826 47.1486C105.906 48.0875 104.705 48.3726 103.711 48.3726C101.16 48.3726 99.7502 46.5226 99.7502 44.4932C99.7502 42.3302 101.338 40.6597 103.503 40.6597ZM100.936 43.8812H105.979C105.817 42.7628 104.956 41.6883 103.501 41.6883C102.167 41.6883 101.172 42.6133 100.934 43.8812H100.936Z" fill="white"/><path d="M109.156 37.7651H110.284V48.2071H109.156V37.7651Z" fill="white"/><path d="M112.909 37.7651H114.037V48.2071H112.909V37.7651Z" fill="white"/><path d="M116.142 44.5231C116.142 42.3302 117.818 40.6597 120.06 40.6597C122.302 40.6597 123.962 42.3302 123.962 44.5231C123.962 46.716 122.284 48.3726 120.06 48.3726C117.835 48.3726 116.142 46.702 116.142 44.5231ZM117.284 44.5231C117.284 46.1339 118.456 47.328 120.058 47.328C121.66 47.328 122.818 46.1339 122.818 44.5231C122.818 42.9124 121.646 41.7043 120.058 41.7043C118.47 41.7043 117.284 42.8984 117.284 44.5231Z" fill="white"/><path d="M124.953 40.8072H126.17L128.07 46.9831L130.088 40.8072H131.408L133.426 46.999L135.326 40.8072H136.543L134.11 48.2071H132.717L130.744 42.1648L128.771 48.2071H127.391L124.959 40.8072H124.953Z" fill="white"/><path d="M138.704 46.0302C138.704 46.9392 139.684 47.3579 140.944 47.3579C142.086 47.3579 142.77 47.015 142.77 46.3133C142.77 45.3444 141.48 45.2089 140.381 45.0155C139.107 44.7763 137.667 44.3138 137.667 42.7768C137.667 41.4352 138.766 40.6577 140.516 40.6577C142.267 40.6577 143.69 41.479 143.69 42.9702H142.548C142.548 42.1189 141.644 41.6564 140.5 41.6564C139.461 41.6564 138.809 42.0292 138.809 42.7309C138.809 43.6699 140.011 43.8194 141.228 44.0447C142.384 44.2679 143.912 44.6268 143.912 46.2375C143.912 47.625 142.784 48.3706 140.901 48.3706C139.017 48.3706 137.562 47.625 137.562 46.0282H138.704V46.0302Z" fill="white"/><path d="M78.2113 59C77.8009 59 77.4698 58.6651 77.4698 58.2544V0.745574C77.4698 0.332917 77.8029 0 78.2113 0C78.6197 0 78.9528 0.33491 78.9528 0.745574V58.2544C78.9528 58.6671 78.6197 59 78.2113 59Z" fill="white"/></g><defs><clipPath id="clip0_1_5"><rect width="205" height="59" fill="white"/></clipPath></defs></svg></symbol>
</svg>