<svg style="display:none"
	xmlns="http://www.w3.org/2000/svg"
	xmlns:xlink="http://www.w3.org/1999/xlink" version="1.1">

	<symbol id="Mail" xmlns="http://www.w3.org/2000/svg" fill="currentColor" viewBox="0 0 128 128"
		stroke="currentColor">
		<svg style="enable-background:new 0 0 128 128;" viewBox="0 0 128 128" xml:space="preserve"><g><circle cx="64" cy="64" r="64" style="fill-rule:evenodd;clip-rule:evenodd;fill:#3D3D3D;"/></g><g><g><path d="M64,28" /></g></g><g><g><path d="M64,72.4l38.2-32.7c-0.6-0.4-1.4-0.7-2.2-0.7H28c-0.8,0-1.6,0.3-2.2,0.7L64,72.4z" style="fill:#FFFFFF;"/></g><g><path d="M66.6,75.4c-1.5,1.3-3.7,1.3-5.2,0L24,43.5V85c0,2.2,1.8,4,4,4h72c2.2,0,4-1.8,4-4V43.4L66.6,75.4z" style="fill:#FFFFFF;"/></g></g></svg>
	</symbol>

	<symbol id="XMark" xmlns="http://www.w3.org/2000/svg" fill="none" viewBox="0 0 24 24"
		stroke="currentColor">
		<path stroke-linecap="round" stroke-linejoin="round" d="M6 18L18 6M6 6l12 12" />
	</symbol>
	<symbol id="Bars3" xmlns="http://www.w3.org/2000/svg" viewBox="0 0 20 20" stroke="currentColor"
		fill="none">
		<path fill-rule="evenodd" clip-rule="evenodd"
			d="M2.5 5.00033C2.5 4.54009 2.8731 4.16699 3.33333 4.16699H16.6667C17.1269 4.16699 17.5 4.54009 17.5 5.00033C17.5 5.46056 17.1269 5.83366 16.6667 5.83366H3.33333C2.8731 5.83366 2.5 5.46056 2.5 5.00033ZM2.5 10.0003C2.5 9.54009 2.8731 9.16699 3.33333 9.16699H16.6667C17.1269 9.16699 17.5 9.54009 17.5 10.0003C17.5 10.4606 17.1269 10.8337 16.6667 10.8337H3.33333C2.8731 10.8337 2.5 10.4606 2.5 10.0003ZM2.5 15.0003C2.5 14.5401 2.8731 14.167 3.33333 14.167H16.6667C17.1269 14.167 17.5 14.5401 17.5 15.0003C17.5 15.4606 17.1269 15.8337 16.6667 15.8337H3.33333C2.8731 15.8337 2.5 15.4606 2.5 15.0003Z"
			fill="currentColor" />
	</symbol>

	<symbol id="TwitterFooter" xmlns="http://www.w3.org/2000/svg" fill="none" viewBox="0 0 24 24"
		stroke="currentColor">
		<svg width="24" height="24" viewBox="0 0 24 24" fill="none" xmlns="http://www.w3.org/2000/svg">
			<path fill-rule="evenodd" clip-rule="evenodd"
				d="M19.9687 7.5486C19.3787 7.80792 18.7487 7.98458 18.0854 8.06525C18.7614 7.65793 19.2814 7.01596 19.5274 6.24999C18.8934 6.61997 18.1907 6.8893 17.4428 7.03929C16.8455 6.39998 15.9942 6 15.0489 6C13.2376 6 11.769 7.46861 11.769 9.27786C11.769 9.53785 11.799 9.78784 11.8537 10.0272C9.12712 9.8985 6.71055 8.58923 5.09329 6.60997C4.80863 7.09129 4.64931 7.6506 4.64931 8.25991C4.64931 9.39986 5.22928 10.4018 6.10791 10.9905C5.56993 10.9731 5.06396 10.8251 4.62264 10.5798V10.6205C4.62264 12.2104 5.75126 13.5364 7.2532 13.8383C6.97788 13.9123 6.68722 13.9523 6.38923 13.9523C6.17991 13.9523 5.97925 13.9323 5.77859 13.895C6.19924 15.1969 7.40852 16.1462 8.8478 16.1729C7.72784 17.0522 6.30857 17.5762 4.77997 17.5762C4.51998 17.5762 4.26066 17.5609 4 17.5315C5.45927 18.4608 7.17853 19.0041 9.03779 19.0041C15.0735 19.0041 18.3701 14.007 18.3701 9.68051C18.3701 9.54119 18.3701 9.40052 18.3601 9.26053C19.0007 8.80122 19.56 8.22057 20 7.56193L19.9687 7.5486Z"
				fill="#D9D9D9" />
		</svg>
	</symbol>

	<symbol id="Brasil" xmlns="http://www.w3.org/2000/svg">
		<svg xmlns="http://www.w3.org/2000/svg" id="flag-icons-br" viewBox="0 0 640 480">
			<g stroke-width="1pt">
				<path fill="#229e45" fill-rule="evenodd" d="M0 0h640v480H0z" />
				<path fill="#f8e509" fill-rule="evenodd" d="m321.4 436 301.5-195.7L319.6 44 17.1 240.7z" />
				<path fill="#2b49a3" fill-rule="evenodd"
					d="M452.8 240c0 70.3-57.1 127.3-127.6 127.3A127.4 127.4 0 1 1 452.8 240" />
				<path fill="#ffffef" fill-rule="evenodd"
					d="m283.3 316.3-4-2.3-4 2 .9-4.5-3.2-3.4 4.5-.5 2.2-4 1.9 4.2 4.4.8-3.3 3m86 26.3-3.9-2.3-4 2 .8-4.5-3.1-3.3 4.5-.5 2.1-4.1 2 4.2 4.4.8-3.4 3.1m-36.2-30-3.4-2-3.5 1.8.8-3.9-2.8-2.9 4-.4 1.8-3.6 1.6 3.7 3.9.7-3 2.7m87-8.5-3.4-2-3.5 1.8.8-3.9-2.7-2.8 3.9-.4 1.8-3.5 1.6 3.6 3.8.7-2.9 2.6m-87.3-22-4-2.2-4 2 .8-4.6-3.1-3.3 4.5-.5 2.1-4.1 2 4.2 4.4.8-3.4 3.2m-104.6-35-4-2.2-4 2 1-4.6-3.3-3.3 4.6-.5 2-4.1 2 4.2 4.4.8-3.3 3.1m13.3 57.2-4-2.3-4 2 .9-4.5-3.2-3.3 4.5-.6 2.1-4 2 4.2 4.4.8-3.3 3.1m132-67.3-3.6-2-3.6 1.8.8-4-2.8-3 4-.5 1.9-3.6 1.7 3.8 4 .7-3 2.7m-6.7 38.3-2.7-1.6-2.9 1.4.6-3.2-2.2-2.3 3.2-.4 1.5-2.8 1.3 3 3 .5-2.2 2.2m-142.2 50.4-2.7-1.5-2.7 1.3.6-3-2.1-2.2 3-.4 1.4-2.7 1.3 2.8 3 .6-2.3 2M419 299.8l-2.2-1.1-2.2 1 .5-2.3-1.7-1.6 2.4-.3 1.2-2 1 2 2.5.5-1.9 1.5" />
				<path fill="#ffffef" fill-rule="evenodd"
					d="m219.3 287.6-2.7-1.5-2.7 1.3.6-3-2.1-2.2 3-.4 1.4-2.7 1.3 2.8 3 .6-2.3 2" />
				<path fill="#ffffef" fill-rule="evenodd"
					d="m219.3 287.6-2.7-1.5-2.7 1.3.6-3-2.1-2.2 3-.4 1.4-2.7 1.3 2.8 3 .6-2.3 2m42.3 3-2.6-1.4-2.7 1.3.6-3-2.1-2.2 3-.4 1.4-2.7 1.3 2.8 3 .5-2.3 2.1m-4.8 17-2.6-1.5-2.7 1.4.6-3-2.1-2.3 3-.4 1.4-2.7 1.3 2.8 3 .6-2.3 2m87.4-22.2-2.6-1.6-2.8 1.4.6-3-2-2.3 3-.3 1.4-2.7 1.2 2.8 3 .5-2.2 2.1m-25.1 3-2.7-1.5-2.7 1.4.6-3-2-2.3 3-.3 1.4-2.8 1.2 2.9 3 .5-2.2 2.1m-68.8-5.8-1.7-1-1.7.8.4-1.9-1.3-1.4 1.9-.2.8-1.7.8 1.8 1.9.3-1.4 1.3m167.8 45.4-2.6-1.5-2.7 1.4.6-3-2.1-2.3 3-.4 1.4-2.7 1.3 2.8 3 .6-2.3 2m-20.8 6-2.2-1.4-2.3 1.2.5-2.6-1.7-1.8 2.5-.3 1.2-2.3 1 2.4 2.5.4-1.9 1.8m10.4 2.3-2-1.2-2.1 1 .4-2.3-1.6-1.7 2.3-.3 1.1-2 1 2 2.3.5-1.7 1.6m29.1-22.8-2-1-2 1 .5-2.3-1.6-1.7 2.3-.3 1-2 1 2.1 2.1.4-1.6 1.6m-38.8 41.8-2.5-1.4-2.7 1.2.6-2.8-2-2 3-.3 1.3-2.5 1.2 2.6 3 .5-2.3 1.9m.6 14.2-2.4-1.4-2.4 1.3.6-2.8-1.9-2 2.7-.4 1.2-2.5 1.1 2.6 2.7.5-2 2m-19-23.1-1.9-1.2-2 1 .4-2.2-1.5-1.7 2.2-.2 1-2 1 2 2.2.4-1.6 1.6m-17.8 2.3-2-1.2-2 1 .5-2.2-1.6-1.7 2.3-.2 1-2 1 2 2.1.4-1.6 1.6m-30.4-24.6-2-1.1-2 1 .5-2.3-1.6-1.6 2.2-.3 1-2 1 2 2.2.5-1.6 1.5m3.7 57-1.6-.9-1.8.9.4-2-1.3-1.4 1.9-.2.9-1.7.8 1.8 1.9.3-1.4 1.3m-46.2-86.6-4-2.3-4 2 .9-4.5-3.2-3.3 4.5-.6 2.2-4 1.9 4.2 4.4.8-3.3 3.1" />
				<path fill="#fff" fill-rule="evenodd"
					d="M444.4 285.8a124.6 124.6 0 0 0 5.8-19.8c-67.8-59.5-143.3-90-238.7-83.7a124.5 124.5 0 0 0-8.5 20.9c113-10.8 196 39.2 241.4 82.6" />
				<path fill="#309e3a"
					d="m414 252.4 2.3 1.3a3.4 3.4 0 0 0-.3 2.2 3 3 0 0 0 1.4 1.7c.7.5 1.4.8 2 .7.6 0 1-.3 1.3-.7a1.3 1.3 0 0 0 .2-.9 2.3 2.3 0 0 0-.5-1c-.2-.3-.7-1-1.5-1.8a7.7 7.7 0 0 1-1.8-3 3.7 3.7 0 0 1 2-4.4 3.8 3.8 0 0 1 2.3-.2 7 7 0 0 1 2.6 1.2c1.4 1 2.3 2 2.6 3.2a4.1 4.1 0 0 1-.6 3.3l-2.4-1.5c.3-.6.4-1.2.2-1.7-.1-.5-.5-1-1.2-1.4a3.2 3.2 0 0 0-1.8-.7 1 1 0 0 0-.9.5c-.2.3-.2.6-.1 1s.6 1.2 1.6 2.2c1 1 1.6 1.9 2 2.5a3.9 3.9 0 0 1-.3 4.2 4.1 4.1 0 0 1-1.9 1.5 4 4 0 0 1-2.4.3c-.9-.2-1.8-.6-2.8-1.3-1.5-1-2.4-2.1-2.7-3.3a5.4 5.4 0 0 1 .6-4zm-11.6-7.6 2.5 1.3a3.4 3.4 0 0 0-.2 2.2 3 3 0 0 0 1.4 1.6c.8.5 1.4.7 2 .6.6 0 1-.3 1.3-.8a1.3 1.3 0 0 0 .2-.8c0-.3-.2-.7-.5-1a34.6 34.6 0 0 0-1.6-1.8c-1.1-1.1-1.8-2-2-2.8a3.7 3.7 0 0 1 .4-3.1 3.6 3.6 0 0 1 1.6-1.4 3.8 3.8 0 0 1 2.2-.3 7 7 0 0 1 2.6 1c1.5 1 2.4 2 2.7 3.1a4.1 4.1 0 0 1-.4 3.4l-2.5-1.4c.3-.7.4-1.2.2-1.7s-.6-1-1.3-1.4a3.2 3.2 0 0 0-1.9-.6 1 1 0 0 0-.8.5c-.2.3-.2.6-.1 1s.7 1.2 1.7 2.2c1 1 1.7 1.8 2 2.4a3.9 3.9 0 0 1 0 4.2 4.2 4.2 0 0 1-1.8 1.6 4 4 0 0 1-2.4.3 8 8 0 0 1-2.9-1.1 6 6 0 0 1-2.8-3.2 5.4 5.4 0 0 1 .4-4m-14.2-3.8 7.3-12 8.8 5.5-1.2 2-6.4-4-1.6 2.7 6 3.7-1.3 2-6-3.7-2 3.3 6.7 4-1.2 2zm-20.7-17 1.1-2 5.4 2.7-2.5 5c-.8.2-1.8.3-3 .2a9.4 9.4 0 0 1-3.3-1 7.7 7.7 0 0 1-3-2.6 6 6 0 0 1-1-3.5 8.6 8.6 0 0 1 1-3.7 8 8 0 0 1 2.6-3 6.2 6.2 0 0 1 3.6-1.1c1 0 2 .3 3.2 1 1.6.7 2.6 1.7 3.1 2.8a5 5 0 0 1 .3 3.5l-2.7-.8a3 3 0 0 0-.2-2c-.3-.6-.8-1-1.6-1.4a3.8 3.8 0 0 0-3.1-.3c-1 .3-1.9 1.2-2.6 2.6-.7 1.4-1 2.7-.7 3.8a3.7 3.7 0 0 0 2 2.4c.5.3 1.1.5 1.7.5a6 6 0 0 0 1.8 0l.8-1.6zm-90.2-22.3 2-14 4.2.7 1.1 9.8 3.9-9 4.2.6-2 13.8-2.7-.4 1.7-10.9-4.4 10.5-2.7-.4-1.1-11.3-1.6 11zm-14.1-1.7 1.3-14 10.3 1-.2 2.4-7.5-.7-.3 3 7 .7-.3 2.4-7-.7-.3 3.8 7.8.7-.2 2.4z" />
				<g stroke-opacity=".5">
					<path fill="#309e3a"
						d="M216.5 191.3c0-1.5.3-2.6.7-3.6a6.7 6.7 0 0 1 1.4-1.9 5.4 5.4 0 0 1 1.8-1.2c1-.3 2-.5 3-.5 2.1 0 3.7.8 5 2a7.4 7.4 0 0 1 1.6 5.5c0 2.2-.7 4-2 5.3a6.5 6.5 0 0 1-5 1.7 6.6 6.6 0 0 1-4.8-2 7.3 7.3 0 0 1-1.7-5.3" />
					<path fill="#f7ffff"
						d="M219.4 191.3c0 1.5.3 2.7 1 3.6.7.8 1.6 1.3 2.8 1.3a3.5 3.5 0 0 0 2.8-1.1c.7-.8 1-2 1.1-3.7 0-1.6-.2-2.8-1-3.6a3.5 3.5 0 0 0-2.7-1.3 3.6 3.6 0 0 0-2.8 1.2c-.8.8-1.1 2-1.2 3.6" />
				</g>
				<g stroke-opacity=".5">
					<path fill="#309e3a"
						d="m233 198.5.2-14h6c1.5 0 2.5.2 3.2.5.7.2 1.2.7 1.6 1.3s.6 1.4.6 2.3a3.8 3.8 0 0 1-1 2.6 4.5 4.5 0 0 1-2.7 1.2l1.5 1.2c.4.4.9 1.2 1.5 2.3l1.7 2.8h-3.4l-2-3.2-1.4-2a2.1 2.1 0 0 0-.9-.6 5 5 0 0 0-1.4-.2h-.6v5.8z" />
					<path fill="#fff"
						d="M236 190.5h2c1.4 0 2.3 0 2.6-.2.3 0 .6-.3.8-.5s.3-.7.3-1c0-.6-.1-1-.4-1.2-.2-.3-.6-.5-1-.6h-2l-2.3-.1z" />
				</g>
				<g stroke-opacity=".5">
					<path fill="#309e3a"
						d="m249 185.2 5.2.3c1.1 0 2 .1 2.6.3a4.7 4.7 0 0 1 2 1.4 6 6 0 0 1 1.2 2.4c.3.9.4 2 .3 3.3a9.3 9.3 0 0 1-.5 3c-.4 1-1 1.8-1.7 2.4a5 5 0 0 1-2 1c-.6.2-1.5.2-2.5.2l-5.3-.3z" />
					<path fill="#fff"
						d="m251.7 187.7-.5 9.3h3.8c.5 0 .9-.2 1.2-.5.3-.3.6-.7.8-1.3.2-.6.4-1.5.4-2.6l-.1-2.5a3.2 3.2 0 0 0-.8-1.4 2.7 2.7 0 0 0-1.2-.7 13 13 0 0 0-2.3-.3z" />
				</g>
				<g stroke-opacity=".5">
					<path fill="#309e3a"
						d="m317.6 210.2 3.3-13.6 4.4 1 3.2 1c.7.4 1.3 1 1.6 1.9.4.8.4 1.7.2 2.8-.2.8-.5 1.5-1 2a3.9 3.9 0 0 1-3 1.4c-.7 0-1.7-.2-3-.5l-1.7-.5-1.2 5.2z" />
					<path fill="#fff"
						d="m323 199.6-.8 3.8 1.5.4c1 .2 1.8.4 2.2.3a1.9 1.9 0 0 0 1.6-1.5c0-.5 0-.9-.2-1.3a2 2 0 0 0-1-.9l-1.9-.5-1.3-.3z" />
				</g>
				<g stroke-opacity=".5">
					<path fill="#309e3a"
						d="m330.6 214.1 4.7-13.2 5.5 2c1.5.5 2.4 1 3 1.4.5.5.9 1 1 1.8s.2 1.5 0 2.3c-.4 1-1 1.7-1.8 2.2-.8.4-1.8.5-3 .3.4.5.8 1 1 1.6l.8 2.7.6 3.1-3.1-1.1-1-3.6a19.5 19.5 0 0 0-.7-2.4 2.1 2.1 0 0 0-.6-.8c-.2-.3-.6-.5-1.3-.7l-.5-.2-2 5.6z" />
					<path fill="#fff"
						d="m336 207.4 1.9.7c1.3.5 2.1.7 2.5.7.3 0 .6 0 .9-.3.3-.2.5-.5.6-.9.2-.4.2-.8 0-1.2a1.7 1.7 0 0 0-.8-.9l-2-.7-2-.7-1.2 3.3z" />
				</g>
				<g stroke-opacity=".5">
					<path fill="#309e3a"
						d="M347 213.6a9 9 0 0 1 1.7-3.2 6.6 6.6 0 0 1 1.8-1.5 6 6 0 0 1 2-.7c1 0 2 0 3.1.4a6.5 6.5 0 0 1 4.2 3.3c.8 1.6.8 3.5.2 5.7a7.4 7.4 0 0 1-3.4 4.5c-1.5.9-3.3 1-5.2.4a6.6 6.6 0 0 1-4.2-3.3 7.3 7.3 0 0 1-.2-5.6" />
					<path fill="#fff"
						d="M349.8 214.4c-.4 1.5-.5 2.8 0 3.8s1.2 1.6 2.3 2c1 .3 2 .2 3-.4 1-.5 1.6-1.6 2.1-3.2.5-1.5.5-2.7 0-3.7a3.5 3.5 0 0 0-2.2-2 3.6 3.6 0 0 0-3 .3c-1 .6-1.7 1.6-2.2 3.2" />
				</g>
				<g stroke-opacity=".5">
					<path fill="#309e3a"
						d="m374.3 233.1 6.4-12.4 5.3 2.7a10 10 0 0 1 2.7 1.9c.5.5.8 1.1.8 1.9s0 1.5-.4 2.2a3.8 3.8 0 0 1-2 2c-1 .2-2 .2-3.1-.2.4.6.6 1.2.8 1.7.2.6.3 1.5.4 2.8l.2 3.2-3-1.5-.4-3.7a20 20 0 0 0-.3-2.5 2 2 0 0 0-.5-1l-1.2-.7-.5-.3-2.7 5.2z" />
					<path fill="#fff"
						d="m380.5 227.2 1.9 1c1.2.6 2 1 2.3 1 .3 0 .7 0 1-.2.3-.1.5-.4.7-.8.2-.4.3-.8.2-1.2a2 2 0 0 0-.7-1 23.7 23.7 0 0 0-1.8-1l-2-1z" />
				</g>
				<g stroke-opacity=".5">
					<path fill="#309e3a"
						d="M426.1 258.7a8.9 8.9 0 0 1 2.5-2.6 6.6 6.6 0 0 1 2.2-.9 5.5 5.5 0 0 1 2.2 0c1 .2 1.9.6 2.8 1.2a6.6 6.6 0 0 1 3 4.4c.3 1.7-.2 3.6-1.4 5.5a7.3 7.3 0 0 1-4.5 3.3 6.5 6.5 0 0 1-5.2-1.1 6.6 6.6 0 0 1-3-4.4c-.3-1.8.2-3.6 1.4-5.4" />
					<path fill="#fff"
						d="M428.6 260.3c-1 1.3-1.3 2.5-1.1 3.6a3.6 3.6 0 0 0 1.6 2.5c1 .7 2 .9 3 .6 1-.3 2-1 2.9-2.4.9-1.4 1.3-2.6 1.1-3.6-.1-1-.7-1.9-1.6-2.6s-2-.8-3-.5c-1 .2-2 1-3 2.4z" />
				</g>
				<path fill="#309e3a"
					d="m301.8 204.5 2.3-9.8 7.2 1.7-.3 1.6-5.3-1.2-.5 2.2 4.9 1.1-.4 1.7-4.9-1.2-.6 2.7 5.5 1.3-.4 1.6z" />
			</g>
		</svg>
	</symbol>

	<symbol id="USA" xmlns="http://www.w3.org/2000/svg">
		<svg xmlns="http://www.w3.org/2000/svg" id="flag-icons-us" viewBox="0 0 640 480">
			<path fill="#bd3d44" d="M0 0h640v480H0" />
			<path stroke="#fff" stroke-width="37"
				d="M0 55.3h640M0 129h640M0 203h640M0 277h640M0 351h640M0 425h640" />
			<path fill="#192f5d" d="M0 0h364.8v258.5H0" />
			<marker id="us-a" markerHeight="30" markerWidth="30">
				<path fill="#fff" d="m14 0 9 27L0 10h28L5 27z" />
			</marker>
			<path fill="none" marker-mid="url(#us-a)"
				d="m0 0 16 11h61 61 61 61 60L47 37h61 61 60 61L16 63h61 61 61 61 60L47 89h61 61 60 61L16 115h61 61 61 61 60L47 141h61 61 60 61L16 166h61 61 61 61 60L47 192h61 61 60 61L16 218h61 61 61 61 60z" />
		</svg>
	</symbol>

	<symbol id="LogoWithoutText" xmlns="http://www.w3.org/2000/svg" fill="none" viewBox="0 0 63 44"
		stroke="currentColor">
		<svg width="63" height="44" viewBox="0 0 63 44" fill="none" xmlns="http://www.w3.org/2000/svg">
			<g clip-path="url(#clip0_6_410)">
				<path
					d="M43.8981 22L37.6283 33.144H37.7726L31.7165 44H44.1155L50.2995 33.144H50.1698L43.8981 22Z"
					fill="#B3BEC4" />
				<path
					d="M19.1019 22L25.3736 10.856H25.2293L31.2835 0H18.8863L12.7005 10.856H12.8302L19.1019 22Z"
					fill="#B3BEC4" />
				<path
					d="M37.6283 33.1439H25.3736L19.1019 21.9999L12.8302 10.856H12.7005H0L6.35024 21.9999L12.7005 33.1439L18.8863 43.9999H31.2835H31.7165L37.7726 33.1439H37.6283Z"
					fill="white" />
				<path
					d="M56.6498 22L50.2995 10.856L44.1155 0H31.7165H31.2835L25.2292 10.856H25.3736H37.6283L43.8981 22L50.1698 33.144H50.2995H63L56.6498 22Z"
					fill="white" />
			</g>
			<defs>
				<clipPath id="clip0_6_410">
					<rect width="63" height="44" fill="white" />
				</clipPath>
			</defs>
		</svg>
	</symbol>

	<symbol id="InputUser" xmlns="http://www.w3.org/2000/svg" fill="none" viewBox="0 0 48 48"
		stroke="#000">
		<svg width="48" height="48" viewBox="0 0 48 48" fill="none" xmlns="http://www.w3.org/2000/svg">
			<path fill-rule="evenodd" clip-rule="evenodd"
				d="M24 40C32.8366 40 40 32.8366 40 24C40 15.1634 32.8366 8 24 8C15.1634 8 8 15.1634 8 24C8 32.8366 15.1634 40 24 40ZM13.268 32.254C11.5081 29.9692 10.4615 27.1067 10.4615 23.9997C10.4615 16.5226 16.5229 10.4612 23.9999 10.4612C31.477 10.4612 37.5384 16.5226 37.5384 23.9997C37.5384 27.1072 36.4914 29.9702 34.731 32.2552C33.9278 31.5269 32.9014 31.0002 31.5506 30.514C31.3483 30.4412 31.1409 30.3696 30.882 30.2825L30.2515 30.0714C28.7183 29.5541 28.1758 29.2255 28.0496 28.8097C28.0452 28.7957 28.0385 28.7697 28.0289 28.7193C27.9743 28.4312 27.9868 28.1162 28.0989 27.8548C28.165 27.7006 28.2658 27.5633 28.4169 27.437C30.1173 25.902 30.9744 24.1721 30.9744 21.8125C30.9744 17.7014 27.7579 14.5643 24.0001 14.5643C20.2164 14.5643 17.0257 17.648 17.0257 21.8125C17.0257 24.1651 17.8606 25.8446 19.5002 27.3887C19.7112 27.5667 19.8172 27.6969 19.8892 27.8335C20.0287 28.0979 20.0465 28.4045 19.9854 28.6867C19.9811 28.7068 19.9774 28.7221 19.9751 28.7316C19.9724 28.7431 19.9716 28.7464 19.9739 28.7402C19.8524 29.1717 19.3493 29.4817 17.9317 29.9659L17.2054 30.2111C16.9025 30.3139 16.6616 30.3983 16.4259 30.4853C15.0976 30.9756 14.0711 31.517 13.268 32.254ZM14.9442 34.0639C17.343 36.2237 20.518 37.5382 23.9999 37.5382C27.4812 37.5382 30.6555 36.2242 33.0541 34.0652C32.517 33.5894 31.7727 33.2101 30.717 32.8301C30.5333 32.764 30.3411 32.6976 30.0972 32.6156L29.4646 32.4038C27.1747 31.6312 26.1439 31.0067 25.7004 29.5445C25.6724 29.4575 25.64 29.3337 25.6104 29.1776C25.4725 28.4498 25.5036 27.661 25.8366 26.8846C26.0532 26.3795 26.386 25.9264 26.8025 25.5794C27.9755 24.5197 28.5129 23.4351 28.5129 21.8125C28.5129 19.0749 26.412 17.0258 24.0001 17.0258C21.5574 17.0258 19.4872 19.0266 19.4872 21.8125C19.4872 23.4335 20.0122 24.4896 21.1291 25.5448C21.5305 25.8773 21.843 26.2614 22.0664 26.6851C22.5134 27.5325 22.5644 28.4076 22.3913 29.2075C22.3558 29.3712 22.3168 29.5015 22.3167 29.4871C21.9291 30.9264 20.9269 31.544 18.7273 32.2953L17.9963 32.5422C17.7122 32.6385 17.4904 32.7162 17.2783 32.7945C16.2347 33.1797 15.486 33.5731 14.9442 34.0639Z"
				fill="#3D3D3D" />
		</svg>
	</symbol>

	<symbol id="InputEmail" xmlns="http://www.w3.org/2000/svg" fill="none" viewBox="0 0 48 49"
		stroke="#000">
		<svg width="48" height="49" viewBox="0 0 48 49" fill="none" xmlns="http://www.w3.org/2000/svg">
			<path fill-rule="evenodd" clip-rule="evenodd"
				d="M39.9688 14.3704C39.9896 14.4134 40 14.4563 40 14.4992V31.1129C40 31.9714 39.7917 32.7871 39.375 33.5598C38.9583 34.3326 38.3333 34.7189 37.5 34.7189H11.5C10.6667 34.7189 9.875 34.3326 9.125 33.5598C8.375 32.7871 8 31.9714 8 31.1129V14.4992C8 14.4563 8.01042 14.4134 8.03125 14.3704C7.98958 14.2202 7.98958 14.0753 8.03125 13.9358C8.07292 13.7962 8.14583 13.6621 8.25 13.5333C8.27083 13.5118 8.29167 13.485 8.3125 13.4528C8.33333 13.4206 8.36458 13.3938 8.40625 13.3723C8.71875 12.943 9.16146 12.6157 9.73438 12.3903C10.3073 12.1649 10.8958 12.0522 11.5 12.0522H37.5C38.1667 12.0522 38.7031 12.1971 39.1094 12.4869C39.5156 12.7767 39.7812 13.2113 39.9062 13.7909C39.9479 13.8767 39.974 13.968 39.9844 14.0646C39.9948 14.1611 39.9896 14.2631 39.9688 14.3704ZM11.0312 14.1128C10.8646 14.1128 10.6979 14.1236 10.5312 14.145L24 25.2208L37.5 14.1128H11.0312ZM37.5 32.6583C37.7708 32.6583 37.9219 32.4705 37.9531 32.0949C37.9844 31.7193 38 31.3919 38 31.1129V16.3667L24.6562 27.3458C24.5521 27.4317 24.4479 27.4961 24.3438 27.539C24.2396 27.5819 24.125 27.6034 24 27.6034C23.875 27.6034 23.7604 27.5819 23.6562 27.539C23.5521 27.4961 23.4479 27.4317 23.3438 27.3458L10 16.3667V31.1129C10 31.3919 10.1823 31.7193 10.5469 32.0949C10.9115 32.4705 11.2292 32.6583 11.5 32.6583H37.5Z"
				fill="#3D3D3D" />
		</svg>
	</symbol>

	<symbol id="Twitter" xmlns="http://www.w3.org/2000/svg" fill="none" viewBox="0 0 48 48"
		stroke="currentColor">
		<svg width="48" height="48" viewBox="0 0 48 48" fill="none" xmlns="http://www.w3.org/2000/svg">
			<path fill-rule="evenodd" clip-rule="evenodd"
				d="M35.1562 17.7679C34.3302 18.1309 33.4482 18.3783 32.5196 18.4912C33.466 17.921 34.1939 17.0222 34.5383 15.9498C33.6508 16.4678 32.6671 16.8449 31.6199 17.0549C30.7837 16.1598 29.5919 15.5999 28.2684 15.5999C25.7327 15.5999 23.6766 17.6559 23.6766 20.1889C23.6766 20.5528 23.7186 20.9028 23.7952 21.2379C19.978 21.0578 16.5948 19.2248 14.3306 16.4538C13.9321 17.1277 13.709 17.9107 13.709 18.7637C13.709 20.3597 14.521 21.7624 15.7511 22.5865C14.9979 22.5622 14.2896 22.355 13.6717 22.0116V22.0685C13.6717 24.2944 15.2518 26.1507 17.3545 26.5735C16.969 26.6771 16.5621 26.7331 16.1449 26.7331C15.8519 26.7331 15.571 26.7051 15.29 26.6529C15.879 28.4756 17.572 29.8046 19.5869 29.8419C18.019 31.0729 16.032 31.8065 13.892 31.8065C13.528 31.8065 13.1649 31.785 12.8 31.744C14.843 33.045 17.25 33.8056 19.8529 33.8056C28.303 33.8056 32.9181 26.8097 32.9181 20.7526C32.9181 20.5575 32.9181 20.3606 32.9041 20.1646C33.801 19.5216 34.584 18.7087 35.2 17.7866L35.1562 17.7679Z"
				fill="#3D3D3D" />
			<rect x="1" y="1" width="46" height="46" rx="23" stroke="#3D3D3D" stroke-width="2" />
		</svg>
	</symbol>

	<symbol id="Testimonial" xmlns="http://www.w3.org/2000/svg" fill="none" viewBox="0 0 70 70"
		stroke="currentColor">
		<svg width="70" height="70" viewBox="0 0 70 70" fill="none" xmlns="http://www.w3.org/2000/svg">
			<rect width="70" height="70" rx="35" fill="#3BC9E1" />
			<path fill-rule="evenodd" clip-rule="evenodd"
				d="M21.0486 47.2501H28.1944L32.9583 38.2667V24.7917H18.6667V38.2667H25.8125L21.0486 47.2501ZM39.4236 47.2501H46.5694L51.3333 38.2667V24.7917H37.0417V38.2667H44.1875L39.4236 47.2501Z"
				fill="white" />
		</svg>
	</symbol>

	<symbol id="ChevronLeft" xmlns="http://www.w3.org/2000/svg" fill="none" viewBox="0 0 31 54"
		stroke="currentColor">
		<svg width="31" height="54" viewBox="0 0 31 54" fill="none" xmlns="http://www.w3.org/2000/svg">
			<path fill-rule="evenodd" clip-rule="evenodd"
				d="M29.4595 6.27118C30.8179 4.91283 30.8179 2.71052 29.4595 1.35218C28.1012 -0.00616837 25.8989 -0.00616837 24.5405 1.35218L1.3521 24.5406C-0.00624084 25.8989 -0.00624084 28.1012 1.3521 29.4596L24.5405 52.648C25.8989 54.0063 28.1012 54.0063 29.4595 52.648C30.8179 51.2896 30.8179 49.0873 29.4595 47.729L8.73061 27.0001L29.4595 6.27118Z"
				fill="#3D3D3D" />
		</svg>
	</symbol>

	<symbol id="ChevronRight" xmlns="http://www.w3.org/2000/svg" fill="none" viewBox="0 0 31 54"
		stroke="currentColor">
		<svg width="31" height="54" viewBox="0 0 31 54" fill="none" xmlns="http://www.w3.org/2000/svg">
			<path fill-rule="evenodd" clip-rule="evenodd"
				d="M1.68052 47.7288C0.328703 49.0872 0.328703 51.2895 1.68052 52.6478C3.03233 54.0062 5.22406 54.0062 6.57587 52.6478L29.6528 29.4594C31.0046 28.1011 31.0046 25.8988 29.6528 24.5404L6.57587 1.35201C5.22406 -0.00633436 3.03233 -0.00633436 1.68052 1.35201C0.328703 2.71036 0.328703 4.91267 1.68052 6.27101L22.3098 26.9999L1.68052 47.7288Z"
				fill="#3D3D3D" />
		</svg>
	</symbol>

	<symbol id="Logo" viewBox="0 0 205 59" fill="none" xmlns="http://www.w3.org/2000/svg">
		<svg width="205" height="59" viewBox="0 0 205 59" fill="none" xmlns="http://www.w3.org/2000/svg">
			<g clip-path="url(#clip0_1_5)">
				<path
					d="M47.6397 29.5L40.8355 41.6146H40.9921L34.4198 53.4122H47.8757L54.5867 41.6146H54.446L47.6397 29.5Z"
					fill="#B3BEC4" />
				<path
					d="M20.73 29.5L27.5362 17.3874H27.3796L33.9499 5.58781H20.496L13.783 17.3874H13.9237L20.73 29.5Z"
					fill="#B3BEC4" />
				<path
					d="M40.8354 41.6146H27.5362L20.73 29.5L13.9237 17.3874H13.783H0L6.89149 29.5L13.783 41.6146L20.496 53.4122H33.9499H34.4198L40.9921 41.6146H40.8354Z"
					fill="white" />
				<path
					d="M61.4782 29.5L54.5867 17.3874L47.8756 5.58781H34.4198H33.9499L27.3796 17.3874H27.5362H40.8354L47.6397 29.5L54.4459 41.6146H54.5867H68.3697L61.4782 29.5Z"
					fill="white" />
				<path
					d="M91.3083 17.4791V7.03709H98.7866V8.1116H92.4522V11.7079H97.6447V12.7664H92.4522V16.4066H98.7866V17.4811H91.3083V17.4791Z"
					fill="white" />
				<path
					d="M100.698 10.0812H101.81V11.1856C102.314 10.4241 103.16 9.93167 104.288 9.93167C105.416 9.93167 106.291 10.4101 106.721 11.3929C107.254 10.5138 108.19 9.93167 109.435 9.93167C111.053 9.93167 112.195 10.9005 112.195 12.9299V17.4791H111.083V13.0495C111.083 11.6182 110.268 10.9763 109.259 10.9763C107.893 10.9763 107.018 12.1405 107.018 13.4682V17.4811H105.906V13.0515C105.906 11.6202 105.089 10.9783 104.066 10.9783C102.7 10.9783 101.812 12.1425 101.812 13.4702V17.4831H100.7V10.0812H100.698Z"
					fill="white" />
				<path
					d="M117.847 9.93167C120.147 9.93167 121.497 11.7817 121.497 13.4821C121.497 13.7054 121.467 13.9147 121.422 14.1679H115.25C115.413 15.5095 116.408 16.6 118.069 16.6C118.767 16.6 119.687 16.3907 120.518 15.5853L121.17 16.4206C120.25 17.3595 119.049 17.6446 118.055 17.6446C115.504 17.6446 114.094 15.7946 114.094 13.7652C114.094 11.6022 115.682 9.93167 117.847 9.93167ZM115.28 13.1532H120.323C120.161 12.0348 119.3 10.9603 117.845 10.9603C116.511 10.9603 115.516 11.8853 115.278 13.1532H115.28Z"
					fill="white" />
				<path
					d="M123.5 17.4791V10.0812H124.612V12.3199C125.088 11.2015 126.154 10.0672 127.729 9.93367V11.2175C126.127 11.4109 124.612 12.7684 124.612 14.3353V17.4831H123.5V17.4791Z"
					fill="white" />
				<path
					d="M132.326 9.93167C133.468 9.93167 134.358 10.3782 134.951 11.0799V10.0812H136.063V16.1235C136.063 19.0919 134.313 20.4195 132.221 20.4195C130.738 20.4195 129.624 19.7637 128.882 19.046L129.521 18.1948C130.308 18.8805 131.152 19.3729 132.221 19.3729C133.823 19.3729 134.951 18.2546 134.951 16.285V16.0916C134.358 16.7933 133.468 17.2399 132.326 17.2399C130.175 17.2399 128.646 15.673 128.646 13.5858C128.646 11.4986 130.175 9.93167 132.326 9.93167ZM132.386 16.1973C133.869 16.1973 134.997 15.0789 134.997 13.5858C134.997 12.0926 133.869 10.9743 132.386 10.9743C130.903 10.9743 129.788 12.0926 129.788 13.5858C129.788 15.0789 130.901 16.1973 132.386 16.1973Z"
					fill="white" />
				<path
					d="M139.21 7.20256C139.61 7.20256 139.967 7.53149 139.967 7.94813C139.967 8.36478 139.61 8.69371 139.21 8.69371C138.779 8.69371 138.438 8.36478 138.438 7.94813C138.438 7.53149 138.779 7.20256 139.21 7.20256ZM139.745 10.0812V17.4811H138.633V10.0812H139.745Z"
					fill="white" />
				<path
					d="M143.466 10.0812V11.3192C144.045 10.4679 144.979 9.93167 146.226 9.93167C147.917 9.93167 149.135 10.9464 149.135 13.1392V17.4811H148.022V13.2748C148.022 11.664 147.148 10.9763 146.02 10.9763C144.462 10.9763 143.468 12.304 143.468 13.7512V17.4811H142.34V10.0812H143.468H143.466Z"
					fill="white" />
				<path
					d="M154.741 9.93167C155.883 9.93167 156.773 10.3782 157.366 11.0799V10.0812H158.478V16.1235C158.478 19.0919 156.728 20.4195 154.636 20.4195C153.153 20.4195 152.039 19.7637 151.298 19.046L151.936 18.1948C152.723 18.8805 153.568 19.3729 154.636 19.3729C156.238 19.3729 157.366 18.2546 157.366 16.285V16.0916C156.773 16.7933 155.883 17.2399 154.741 17.2399C152.59 17.2399 151.062 15.673 151.062 13.5858C151.062 11.4986 152.59 9.93167 154.741 9.93167ZM154.801 16.1973C156.284 16.1973 157.412 15.0789 157.412 13.5858C157.412 12.0926 156.284 10.9743 154.801 10.9743C153.318 10.9743 152.204 12.0926 152.204 13.5858C152.204 15.0789 153.316 16.1973 154.801 16.1973Z"
					fill="white" />
				<path
					d="M91.1893 22.4011L95.1208 31.5314L99.0662 22.4011H100.327L95.7572 32.8431H94.4824L89.9125 22.4011H91.1893Z"
					fill="white" />
				<path
					d="M104.096 25.2957C106.396 25.2957 107.746 27.1456 107.746 28.8461C107.746 29.0694 107.716 29.2787 107.671 29.5319H101.499C101.661 30.8735 102.657 31.964 104.318 31.964C105.016 31.964 105.936 31.7547 106.767 30.9493L107.419 31.7846C106.499 32.7235 105.297 33.0086 104.304 33.0086C101.753 33.0086 100.343 31.1586 100.343 29.1292C100.343 26.9662 101.931 25.2957 104.096 25.2957ZM101.529 28.5172H106.572C106.41 27.3988 105.549 26.3243 104.094 26.3243C102.76 26.3243 101.764 27.2493 101.527 28.5172H101.529Z"
					fill="white" />
				<path
					d="M110.831 25.4452V26.6832C111.41 25.8319 112.344 25.2957 113.591 25.2957C115.282 25.2957 116.499 26.3104 116.499 28.5032V32.8451H115.387V28.6388C115.387 27.028 114.513 26.3403 113.384 26.3403C111.826 26.3403 110.833 27.668 110.833 29.1152V32.8451H109.705V25.4452H110.833H110.831Z"
					fill="white" />
				<path
					d="M117.818 25.4452H119.287V23.1925L120.399 22.8197V25.4452H123.321V26.5037H120.399V30.2775C120.399 31.635 121.021 31.964 121.733 31.964C122.177 31.964 122.697 31.8145 123.157 31.5154L123.573 32.4245C123.04 32.7534 122.385 33.0066 121.6 33.0066C120.324 33.0066 119.287 32.3946 119.287 30.2017V26.5018H117.818V25.4432V25.4452Z"
					fill="white" />
				<path
					d="M125.948 25.4452V29.6515C125.948 31.2623 126.822 31.948 127.951 31.948C129.509 31.948 130.502 30.6204 130.502 29.1731V25.4432H131.614V32.8431H130.502V31.5892C129.923 32.4404 128.989 32.9906 127.742 32.9906C126.051 32.9906 124.834 31.962 124.834 29.7831V25.4412H125.946L125.948 25.4452Z"
					fill="white" />
				<path
					d="M134.18 32.8431V25.4432H135.292V27.6819C135.768 26.5635 136.835 25.4292 138.409 25.2957V26.5795C136.807 26.7729 135.292 28.1304 135.292 29.6973V32.8451H134.18V32.8431Z"
					fill="white" />
				<path
					d="M143.082 25.2957C145.381 25.2957 146.732 27.1456 146.732 28.8461C146.732 29.0694 146.702 29.2787 146.658 29.5319H140.486C140.649 30.8735 141.644 31.964 143.306 31.964C144.004 31.964 144.922 31.7547 145.754 30.9493L146.406 31.7846C145.487 32.7235 144.285 33.0086 143.29 33.0086C140.738 33.0086 139.329 31.1586 139.329 29.1292C139.329 26.9662 140.917 25.2957 143.082 25.2957ZM140.516 28.5172H145.56C145.397 27.3988 144.537 26.3243 143.082 26.3243C141.747 26.3243 140.752 27.2493 140.516 28.5172Z"
					fill="white" />
				<path
					d="M152.604 27.6221C152.604 24.5641 154.963 22.2217 157.975 22.2217C160.275 22.2217 162.174 23.6092 162.929 25.5329L161.847 25.9356C161.209 24.4145 159.739 23.3241 157.959 23.3241C155.63 23.3241 153.776 25.188 153.776 27.6201C153.776 30.0522 155.616 31.9161 157.975 31.9161C159.755 31.9161 161.209 30.8416 161.847 29.3046L162.929 29.6934C162.172 31.6331 160.275 33.0205 157.975 33.0205C154.963 33.0205 152.604 30.6782 152.604 27.6201V27.6221Z"
					fill="white" />
				<path
					d="M164.293 29.1432C164.293 26.9802 165.895 25.2937 168.106 25.2937C169.264 25.2937 170.184 25.7562 170.806 26.5317V25.4432H171.918V32.8431H170.806V31.7547C170.184 32.5301 169.248 33.0086 168.092 33.0086C165.895 33.0086 164.293 31.3081 164.293 29.1452V29.1432ZM165.435 29.1432C165.435 30.724 166.563 31.962 168.12 31.962C169.676 31.962 170.85 30.724 170.85 29.1432C170.85 27.5623 169.692 26.3383 168.12 26.3383C166.548 26.3383 165.435 27.5623 165.435 29.1432Z"
					fill="white" />
				<path
					d="M174.456 25.4452H175.568V26.5197C176.191 25.7582 177.127 25.2957 178.269 25.2957C180.479 25.2957 182.081 26.9822 182.081 29.1451C182.081 31.3081 180.479 33.0086 178.269 33.0086C177.127 33.0086 176.191 32.5461 175.568 31.7706V35.5144H174.456V25.4452ZM178.239 31.964C179.811 31.964 180.939 30.726 180.939 29.1451C180.939 27.5643 179.811 26.3403 178.239 26.3403C176.667 26.3403 175.525 27.5643 175.525 29.1451C175.525 30.726 176.667 31.964 178.239 31.964Z"
					fill="white" />
				<path
					d="M184.752 22.5646C185.152 22.5646 185.509 22.8935 185.509 23.3101C185.509 23.7268 185.152 24.0557 184.752 24.0557C184.322 24.0557 183.981 23.7268 183.981 23.3101C183.981 22.8935 184.322 22.5646 184.752 22.5646ZM185.287 25.4432V32.8431H184.175V25.4432H185.287Z"
					fill="white" />
				<path
					d="M187.139 25.4452H188.608V23.1925L189.72 22.8197V25.4452H192.643V26.5037H189.72V30.2775C189.72 31.635 190.343 31.964 191.056 31.964C191.501 31.964 192.02 31.8145 192.48 31.5154L192.896 32.4245C192.363 32.7534 191.709 33.0066 190.924 33.0066C189.649 33.0066 188.61 32.3946 188.61 30.2017V26.5018H187.141V25.4432L187.139 25.4452Z"
					fill="white" />
				<path
					d="M193.668 29.1432C193.668 26.9802 195.269 25.2937 197.48 25.2937C198.638 25.2937 199.558 25.7562 200.18 26.5317V25.4432H201.293V32.8431H200.18V31.7547C199.558 32.5301 198.622 33.0086 197.466 33.0086C195.271 33.0086 193.668 31.3081 193.668 29.1452V29.1432ZM194.809 29.1432C194.809 30.724 195.938 31.962 197.494 31.962C199.05 31.962 200.224 30.724 200.224 29.1432C200.224 27.5623 199.068 26.3383 197.494 26.3383C195.92 26.3383 194.809 27.5623 194.809 29.1432Z"
					fill="white" />
				<path d="M203.872 22.4011H205V32.8431H203.872V22.4011Z" fill="white" />
				<path
					d="M91.3242 37.7651H98.5051V38.8396H92.4661V42.9263H97.9559V44.0008H92.4661V48.2071H91.3242V37.7651Z"
					fill="white" />
				<path
					d="M103.503 40.6597C105.803 40.6597 107.153 42.5097 107.153 44.2101C107.153 44.4334 107.123 44.6427 107.078 44.8959H100.906C101.069 46.2375 102.064 47.328 103.725 47.328C104.423 47.328 105.343 47.1187 106.174 46.3133L106.826 47.1486C105.906 48.0875 104.705 48.3726 103.711 48.3726C101.16 48.3726 99.7502 46.5226 99.7502 44.4932C99.7502 42.3302 101.338 40.6597 103.503 40.6597ZM100.936 43.8812H105.979C105.817 42.7628 104.956 41.6883 103.501 41.6883C102.167 41.6883 101.172 42.6133 100.934 43.8812H100.936Z"
					fill="white" />
				<path d="M109.156 37.7651H110.284V48.2071H109.156V37.7651Z" fill="white" />
				<path d="M112.909 37.7651H114.037V48.2071H112.909V37.7651Z" fill="white" />
				<path
					d="M116.142 44.5231C116.142 42.3302 117.818 40.6597 120.06 40.6597C122.302 40.6597 123.962 42.3302 123.962 44.5231C123.962 46.716 122.284 48.3726 120.06 48.3726C117.835 48.3726 116.142 46.702 116.142 44.5231ZM117.284 44.5231C117.284 46.1339 118.456 47.328 120.058 47.328C121.66 47.328 122.818 46.1339 122.818 44.5231C122.818 42.9124 121.646 41.7043 120.058 41.7043C118.47 41.7043 117.284 42.8984 117.284 44.5231Z"
					fill="white" />
				<path
					d="M124.953 40.8072H126.17L128.07 46.9831L130.088 40.8072H131.408L133.426 46.999L135.326 40.8072H136.543L134.11 48.2071H132.717L130.744 42.1648L128.771 48.2071H127.391L124.959 40.8072H124.953Z"
					fill="white" />
				<path
					d="M138.704 46.0302C138.704 46.9392 139.684 47.3579 140.944 47.3579C142.086 47.3579 142.77 47.015 142.77 46.3133C142.77 45.3444 141.48 45.2089 140.381 45.0155C139.107 44.7763 137.667 44.3138 137.667 42.7768C137.667 41.4352 138.766 40.6577 140.516 40.6577C142.267 40.6577 143.69 41.479 143.69 42.9702H142.548C142.548 42.1189 141.644 41.6564 140.5 41.6564C139.461 41.6564 138.809 42.0292 138.809 42.7309C138.809 43.6699 140.011 43.8194 141.228 44.0447C142.384 44.2679 143.912 44.6268 143.912 46.2375C143.912 47.625 142.784 48.3706 140.901 48.3706C139.017 48.3706 137.562 47.625 137.562 46.0282H138.704V46.0302Z"
					fill="white" />
				<path
					d="M78.2113 59C77.8009 59 77.4698 58.6651 77.4698 58.2544V0.745574C77.4698 0.332917 77.8029 0 78.2113 0C78.6197 0 78.9528 0.33491 78.9528 0.745574V58.2544C78.9528 58.6671 78.6197 59 78.2113 59Z"
					fill="white" />
			</g>
			<defs>
				<clipPath id="clip0_1_5">
					<rect width="205" height="59" fill="white" />
				</clipPath>
			</defs>
		</svg>
	</symbol>

	<symbol id="Email" viewBox="0 0 40 40">
		<path
			d="M37.3,15.3v15.3c0,0.8-0.3,1.6-0.9,2.2c-0.6,0.6-1.4,0.9-2.2,0.9H5.8c-0.8,0-1.6-0.3-2.2-0.9s-0.9-1.4-0.9-2.2V15.3 c0.5,0.6,1.2,1.1,2,1.7c4.7,3.1,7.9,5.4,9.6,6.7c0.7,0.5,1.4,0.9,1.8,1.2c0.4,0.3,1,0.6,1.9,0.9c0.7,0.3,1.5,0.5,2.1,0.5l0,0 c0.6,0,1.4-0.2,2.1-0.5c0.7-0.3,1.4-0.6,1.9-0.9c0.4-0.3,1-0.7,1.8-1.2c2.2-1.6,5.4-3.8,9.6-6.7C36.1,16.5,36.7,15.9,37.3,15.3 L37.3,15.3z M37.3,9.6c0,1-0.3,2-0.9,2.9c-0.6,0.9-1.5,1.8-2.4,2.4c-4.9,3.3-7.9,5.4-9,6.2c-0.1,0.1-0.4,0.3-0.8,0.6 c-0.4,0.3-0.7,0.5-1,0.7c-0.3,0.2-0.6,0.4-1,0.6c-0.4,0.2-0.7,0.4-1.1,0.5c-0.4,0.1-0.6,0.2-0.9,0.2l0,0c-0.3,0-0.6-0.1-0.9-0.2 c-0.3-0.1-0.7-0.3-1.1-0.5c-0.4-0.2-0.7-0.4-1-0.6c-0.3-0.2-0.6-0.4-1-0.7c-0.4-0.3-0.7-0.5-0.8-0.6c-1.1-0.8-2.8-2-5.1-3.5 c-2.3-1.6-3.3-2.4-3.7-2.7c-0.8-0.5-1.6-1.2-2.3-2.2s-1-1.9-1-2.6c0-1,0.3-1.9,0.8-2.5c0.5-0.6,1.2-1,2.3-1h28.4 c0.8,0,1.6,0.3,2.2,0.9C37.1,8.1,37.3,8.8,37.3,9.6L37.3,9.6z" />
	</symbol>

	<symbol id="Linkedin" viewBox="0 0 40 40">
		<path
			d="M12.1,13.8v19.1H5.7V13.8C5.7,13.8,12.1,13.8,12.1,13.8z M12.5,7.9c0,0.9-0.3,1.7-1,2.4c-0.7,0.6-1.5,0.9-2.6,0.9h0 c-1.1,0-1.9-0.3-2.5-0.9c-0.6-0.6-1-1.4-1-2.4c0-1,0.3-1.7,1-2.4S7.9,4.6,9,4.6s1.9,0.3,2.6,0.9S12.5,6.9,12.5,7.9z M35,22v11h-6.4 V22.7c0-1.4-0.3-2.4-0.8-3.2c-0.5-0.8-1.3-1.1-2.4-1.1c-0.8,0-1.5,0.2-2,0.7c-0.5,0.4-1,1-1.2,1.7c-0.1,0.4-0.2,0.9-0.2,1.6v10.7 h-6.4c0-5.1,0-9.3,0-12.5s0-5.1,0-5.7l0-0.9H22v2.8h0c0.3-0.4,0.5-0.8,0.8-1.1c0.3-0.3,0.6-0.6,1.1-1c0.5-0.4,1-0.6,1.7-0.8 c0.7-0.2,1.4-0.3,2.2-0.3c2.2,0,4,0.7,5.3,2.2C34.4,17,35,19.1,35,22L35,22z" />
	</symbol>

	<symbol id="Instagram" viewBox="0 0 40 40">
		<path
			d="M20,7c4.2,0,4.7,0,6.3,0.1c1.5,0.1,2.3,0.3,3,0.5C30,8,30.5,8.3,31.1,8.9c0.5,0.5,0.9,1.1,1.2,1.8c0.2,0.5,0.5,1.4,0.5,3 C33,15.3,33,15.8,33,20s0,4.7-0.1,6.3c-0.1,1.5-0.3,2.3-0.5,3c-0.3,0.7-0.6,1.2-1.2,1.8c-0.5,0.5-1.1,0.9-1.8,1.2 c-0.5,0.2-1.4,0.5-3,0.5C24.7,33,24.2,33,20,33s-4.7,0-6.3-0.1c-1.5-0.1-2.3-0.3-3-0.5C10,32,9.5,31.7,8.9,31.1 C8.4,30.6,8,30,7.7,29.3c-0.2-0.5-0.5-1.4-0.5-3C7,24.7,7,24.2,7,20s0-4.7,0.1-6.3c0.1-1.5,0.3-2.3,0.5-3C8,10,8.3,9.5,8.9,8.9 C9.4,8.4,10,8,10.7,7.7c0.5-0.2,1.4-0.5,3-0.5C15.3,7.1,15.8,7,20,7z M20,4.3c-4.3,0-4.8,0-6.5,0.1c-1.6,0-2.8,0.3-3.8,0.7 C8.7,5.5,7.8,6,6.9,6.9C6,7.8,5.5,8.7,5.1,9.7c-0.4,1-0.6,2.1-0.7,3.8c-0.1,1.7-0.1,2.2-0.1,6.5s0,4.8,0.1,6.5 c0,1.6,0.3,2.8,0.7,3.8c0.4,1,0.9,1.9,1.8,2.8c0.9,0.9,1.7,1.4,2.8,1.8c1,0.4,2.1,0.6,3.8,0.7c1.6,0.1,2.2,0.1,6.5,0.1 s4.8,0,6.5-0.1c1.6-0.1,2.9-0.3,3.8-0.7c1-0.4,1.9-0.9,2.8-1.8c0.9-0.9,1.4-1.7,1.8-2.8c0.4-1,0.6-2.1,0.7-3.8 c0.1-1.6,0.1-2.2,0.1-6.5s0-4.8-0.1-6.5c-0.1-1.6-0.3-2.9-0.7-3.8c-0.4-1-0.9-1.9-1.8-2.8c-0.9-0.9-1.7-1.4-2.8-1.8 c-1-0.4-2.1-0.6-3.8-0.7C24.8,4.3,24.3,4.3,20,4.3L20,4.3L20,4.3z" />
		<path
			d="M20,11.9c-4.5,0-8.1,3.7-8.1,8.1s3.7,8.1,8.1,8.1s8.1-3.7,8.1-8.1S24.5,11.9,20,11.9z M20,25.2c-2.9,0-5.2-2.3-5.2-5.2 s2.3-5.2,5.2-5.2s5.2,2.3,5.2,5.2S22.9,25.2,20,25.2z" />
		<path
			d="M30.6,11.6c0,1-0.8,1.9-1.9,1.9c-1,0-1.9-0.8-1.9-1.9s0.8-1.9,1.9-1.9C29.8,9.7,30.6,10.5,30.6,11.6z" />
	</symbol>

</svg>